<svg xmlns="http://www.w3.org/2000/svg" xmlns:xlink="http://www.w3.org/1999/xlink" version="1.1" width="720" height="720" viewBox="0 0 720 720">
<defs>
<clipPath id="clip_1">
<path transform="matrix(1,0,0,-1,0,720)" d="M111.17 85.88H709.2V661.5675H111.17Z"/>
</clipPath>
<g id="font_2_48">
<path transform="matrix(.001,0,0,.001,0,0)" d="M36 327C36 402 47 467 70 522 92 576 123 617 161 644 190 665 220 676 252 676 302 676 348 650 389 598 439 534 464 447 464 337 464 260 453 195 431 141 409 87 380 49 346 25 312 1 279-11 247-11 183-11 131 26 89 100 53 162 36 238 36 327ZM132 315C132 223 143 149 166 92 184 43 211 19 249 19 266 19 284 26 303 42 322 58 336 84 346 122 361 178 369 257 369 359 369 434 361 497 345 548 333 585 318 611 300 627 286 638 270 644 251 644 229 644 209 634 192 614 168 586 152 544 144 486 136 428 132 371 132 315Z"/>
</g>
<clipPath id="clip_3">
<path transform="matrix(1,0,0,-1,0,720)" d="M111.17 85.88H709.2V661.5675H111.17Z"/>
</clipPath>
<g id="font_2_49">
<path transform="matrix(.001,0,0,.001,0,0)" d="M117 597 278 676H294V117C294 79 295 56 299 47 302 38 308 31 318 26 328 21 348 18 378 18V0H129V18C160 18 180 21 189 26 198 30 204 37 208 45 212 53 214 77 214 117V474C214 522 212 553 209 567 207 577 203 585 197 590 191 594 183 597 175 597 163 597 146 592 125 582L117 597Z"/>
</g>
<clipPath id="clip_4">
<path transform="matrix(1,0,0,-1,0,720)" d="M111.17 85.88H709.2V661.5675H111.17Z"/>
</clipPath>
<g id="font_2_50">
<path transform="matrix(.001,0,0,.001,0,0)" d="M458 127 412 0H21V18C136 122 217 208 264 275 310 341 334 402 334 457 334 499 321 533 295 560 269 587 239 601 204 601 171 601 142 591 116 572 90 553 71 525 59 489H41C49 549 69 595 103 627 137 659 179 676 229 676 283 676 328 658 364 624 400 589 418 548 418 502 418 468 410 435 395 401 370 348 331 292 277 234 196 145 145 92 125 74H298C333 74 358 75 372 78 386 80 399 85 411 93 422 101 432 112 440 127H458Z"/>
</g>
<clipPath id="clip_5">
<path transform="matrix(1,0,0,-1,0,720)" d="M111.17 85.88H709.2V661.5675H111.17Z"/>
</clipPath>
<g id="font_2_51">
<path transform="matrix(.001,0,0,.001,0,0)" d="M51 536C69 580 93 615 122 639 151 663 187 676 230 676 283 676 324 658 352 624 373 598 384 570 384 542 384 493 353 443 293 392 333 376 364 353 385 323 406 293 417 259 417 219 417 161 398 112 362 70 314 16 246-11 156-11 111-11 81-5 65 5 49 15 41 27 41 41 41 50 44 58 52 65 59 72 68 76 80 76 88 76 96 74 104 72 110 70 122 64 142 54 161 44 175 38 183 36 195 32 207 31 221 31 254 31 283 43 308 69 332 95 345 125 345 161 345 186 339 211 328 236 319 254 310 267 300 277 286 290 266 302 242 313 218 323 193 329 167 329H152V343C177 346 203 355 229 371 255 386 273 404 285 426 297 447 303 471 303 497 303 530 292 557 271 578 250 598 224 609 193 609 143 609 101 582 67 528L51 536Z"/>
</g>
<clipPath id="clip_6">
<path transform="matrix(1,0,0,-1,0,720)" d="M111.17 85.88H709.2V661.5675H111.17Z"/>
</clipPath>
<g id="font_2_52">
<path transform="matrix(.001,0,0,.001,0,0)" d="M465 244V175H376V0H296V175H16V237L323 676H376V244H465ZM296 244V573L63 244H296Z"/>
</g>
<clipPath id="clip_7">
<path transform="matrix(1,0,0,-1,0,720)" d="M111.17 85.88H709.2V661.5675H111.17Z"/>
</clipPath>
<g id="font_2_53">
<path transform="matrix(.001,0,0,.001,0,0)" d="M434 662 396 579H197L153 490C239 477 308 445 358 394 401 350 423 298 423 238 423 203 416 171 402 141 388 111 370 86 348 65 326 44 303 27 277 15 239-2 201-11 162-11 122-11 93-4 75 9 57 22 48 37 48 53 48 62 51 70 59 77 66 84 75 88 87 88 95 88 103 86 109 84 115 81 126 74 142 64 166 47 191 39 216 39 254 39 287 53 316 82 345 110 360 145 360 187 360 227 347 264 321 299 295 333 260 360 215 379 179 393 131 402 70 405L197 662H434Z"/>
</g>
<clipPath id="clip_8">
<path transform="matrix(1,0,0,-1,0,720)" d="M111.17 85.88H709.2V661.5675H111.17Z"/>
</clipPath>
<g id="font_2_54">
<path transform="matrix(.001,0,0,.001,0,0)" d="M448 676V658C405 653 370 644 343 632 315 619 288 599 262 573 236 547 214 517 196 485 178 453 164 414 153 370 199 402 246 418 294 418 339 418 378 399 411 363 444 327 461 280 461 223 461 167 444 117 411 71 371 16 317-11 251-11 205-11 167 3 136 33 74 91 43 167 43 260 43 319 54 375 78 429 102 482 136 529 180 571 224 612 267 640 307 654 347 668 385 676 420 676H448ZM145 334C139 290 136 254 136 228 136 196 141 162 153 126 164 89 181 60 205 39 221 23 241 16 265 16 293 16 319 29 341 56 363 82 375 120 375 170 375 225 363 273 341 314 319 354 287 375 247 375 235 375 221 372 207 367 193 362 172 351 145 334Z"/>
</g>
<clipPath id="clip_9">
<path transform="matrix(1,0,0,-1,0,720)" d="M111.17 85.88H709.2V661.5675H111.17Z"/>
</clipPath>
<g id="font_2_55">
<path transform="matrix(.001,0,0,.001,0,0)" d="M101 662H456V644L235-13H180L378 583H196C159 583 133 578 117 569 89 554 67 531 51 500L37 505 101 662Z"/>
</g>
<clipPath id="clip_10">
<path transform="matrix(1,0,0,-1,0,720)" d="M111.17 85.88H709.2V661.5675H111.17Z"/>
</clipPath>
<g id="font_2_56">
<path transform="matrix(.001,0,0,.001,0,0)" d="M192 333C139 376 105 411 90 437 75 463 68 490 68 518 68 561 84 598 117 629 150 660 194 676 250 676 303 676 346 661 379 632 411 603 428 570 428 533 428 508 419 483 401 457 383 431 347 401 292 367 348 322 386 287 405 262 429 228 442 193 442 157 442 110 424 70 389 38 353 5 307-11 250-11 186-11 137 8 103 47 75 79 61 113 61 151 61 180 70 209 90 238 110 266 144 298 192 333ZM269 386C307 420 332 448 342 469 352 489 358 512 358 538 358 572 348 598 329 618 310 637 284 647 251 647 217 647 190 637 170 618 149 599 139 577 139 551 139 534 143 517 152 500 160 483 172 467 188 452L269 386ZM215 315C187 292 167 267 154 240 141 213 135 184 135 153 135 111 146 77 169 52 192 27 221 15 257 15 292 15 320 24 342 44 363 64 374 88 374 117 374 140 367 161 355 180 331 214 285 259 215 315Z"/>
</g>
<g id="font_2_84">
<path transform="matrix(.001,0,0,.001,0,0)" d="M579 662 586 507H567C563 534 559 553 553 565 543 584 529 598 512 607 495 616 473 621 446 621H353V115C353 74 357 49 366 39 378 25 397 18 423 18H446V0H166V18H189C217 18 237 26 249 43 255 53 259 77 259 115V621H180C148 621 126 618 114 614 96 607 82 595 70 578 58 560 51 537 49 507H30L38 662H579Z"/>
</g>
<g id="font_2_97">
<path transform="matrix(.001,0,0,.001,0,0)" d="M285 64C239 28 210 8 198 3 180-4 162-8 142-8 111-8 86 2 66 23 46 43 36 71 36 106 36 128 40 147 50 163 63 185 86 205 119 225 152 244 207 268 285 296V314C285 358 277 389 263 406 249 422 228 431 202 431 181 431 165 425 153 414 140 402 134 390 134 376L135 348C135 332 131 321 123 313 115 305 106 301 94 301 82 301 72 305 64 313 56 321 53 333 53 348 53 376 67 401 96 425 124 448 164 460 216 460 256 460 288 453 314 440 333 430 347 414 356 393 362 379 365 350 365 307V155C365 112 365 86 367 77 369 67 371 61 375 58 379 54 383 53 388 53 393 53 398 54 402 56 409 60 422 72 442 92V64C405 16 370-8 337-8 321-8 308-2 299 8 289 18 285 37 285 64ZM285 96V267C235 247 203 233 189 225 163 211 145 196 134 180 123 164 118 147 118 129 118 105 125 86 139 70 153 54 169 47 187 47 211 47 244 63 285 96Z"/>
</g>
<g id="font_2_115">
<path transform="matrix(.001,0,0,.001,0,0)" d="M320 460V308H304C292 356 276 388 257 406 237 423 213 432 183 432 159 432 141 426 127 414 113 402 106 388 106 374 106 355 111 339 122 327 132 313 152 299 184 284L255 250C321 217 354 174 354 122 354 81 338 48 308 24 277 0 243-13 205-13 177-13 146-8 111 1 100 4 91 6 84 6 76 6 71 2 67-6H51V153H67C76 107 93 72 119 49 145 26 174 15 206 15 228 15 246 21 260 35 274 48 282 64 282 83 282 105 274 123 258 139 242 154 210 173 163 197 116 220 85 241 71 261 56 279 49 303 49 331 49 367 61 398 87 423 112 447 145 460 185 460 202 460 223 456 249 449 265 444 276 442 282 442 287 442 291 443 294 445 296 447 300 452 304 460H320Z"/>
</g>
<g id="font_2_107">
<path transform="matrix(.001,0,0,.001,0,0)" d="M164 694V249L277 353C301 375 315 389 319 395 321 399 323 403 323 407 323 413 320 419 315 424 309 428 301 431 289 432V447H483V432C456 431 434 427 416 419 398 411 379 398 358 379L243 273 358 128C390 88 411 62 422 52 438 36 451 26 463 22 471 19 486 18 506 18V0H289V18C301 18 309 19 313 23 317 26 320 31 320 38 320 45 313 57 301 74L164 249V101C164 71 166 52 170 43 174 34 179 28 187 24 194 20 210 18 236 18V0H8V18C30 18 48 20 60 26 66 29 71 34 75 42 80 53 83 72 83 98V505C83 557 81 588 79 600 77 612 73 620 68 624 62 628 55 631 47 631 40 631 30 628 17 623L8 640 141 694H164Z"/>
</g>
<g id="font_2_32">
</g>
<g id="font_2_101">
<path transform="matrix(.001,0,0,.001,0,0)" d="M106 279C106 212 122 160 155 122 187 84 226 66 270 66 298 66 323 74 345 90 367 106 385 133 400 173L416 163C408 118 388 77 356 41 323 5 282-13 232-13 178-13 132 7 94 49 56 91 37 147 37 218 37 294 56 354 96 397 135 439 184 461 244 461 294 461 335 444 367 411 399 378 416 334 416 279H106ZM106 307H313C311 335 308 356 303 368 295 386 283 400 267 410 251 420 234 426 216 426 189 426 165 415 144 394 122 373 110 344 106 307Z"/>
</g>
<g id="font_2_113">
<path transform="matrix(.001,0,0,.001,0,0)" d="M427 460V-114C427-142 429-161 433-169 437-177 443-183 451-188 459-192 476-195 500-195V-213H274V-195H284C302-195 315-192 325-187 331-183 337-177 341-168 345-158 347-140 347-114V78C317 42 291 18 269 6 247-6 224-13 200-13 156-13 118 6 84 45 50 84 33 137 33 204 33 279 55 340 100 388 145 436 199 460 263 460 281 460 298 457 314 452 330 447 344 439 356 429 375 438 393 448 411 460H427ZM347 108V318C347 342 343 362 337 376 331 390 319 401 303 411 287 421 268 426 248 426 211 426 180 410 154 379 128 348 115 301 115 239 115 179 128 133 155 102 181 70 213 55 251 55 270 55 287 59 302 67 317 75 332 89 347 108Z"/>
</g>
<g id="font_2_117">
<path transform="matrix(.001,0,0,.001,0,0)" d="M423 447V176C423 124 424 93 427 81 429 69 433 61 439 57 444 52 450 50 458 50 468 50 479 53 492 59L499 42 365-13H343V81C304 39 275 13 255 3 235-7 213-13 191-13 165-13 143-6 125 8 107 22 94 41 87 64 80 86 77 119 77 161V360C77 381 74 396 70 404 65 412 58 419 49 423 40 427 24 429 1 429V447H158V148C158 106 165 78 179 65 193 52 211 46 232 46 246 46 261 50 279 59 297 68 318 85 343 110V363C343 388 338 405 329 414 319 423 300 428 271 429V447H423Z"/>
</g>
<g id="font_2_110">
<path transform="matrix(.001,0,0,.001,0,0)" d="M162 366C214 428 264 460 312 460 336 460 356 454 374 442 392 430 406 410 417 382 423 362 427 332 427 292V101C427 73 429 53 434 43 437 35 443 28 451 24 459 20 474 18 496 18V0H274V18H284C304 18 319 21 327 27 335 33 341 43 345 55 346 60 347 75 347 101V284C347 324 341 354 331 372 320 390 302 400 277 400 238 400 200 379 162 337V101C162 71 163 52 167 45 171 35 178 28 186 24 194 20 210 18 234 18V0H13V18H23C45 18 61 23 69 35 77 46 81 68 81 101V267C81 321 79 353 77 365 75 377 71 385 66 389 61 393 54 396 46 396 36 396 25 393 13 388L6 406 141 460H162V366Z"/>
</g>
<g id="font_2_99">
<path transform="matrix(.001,0,0,.001,0,0)" d="M411 170C399 111 375 66 340 34 305 2 266-13 224-13 172-13 128 8 90 50 52 92 34 150 34 223 34 293 55 350 97 394 139 438 189 460 248 460 291 460 327 448 355 425 383 402 398 378 398 353 398 340 394 330 386 323 378 315 367 312 353 312 333 312 319 318 310 330 304 336 300 349 298 369 296 388 290 403 279 413 267 423 251 428 231 428 199 428 173 416 153 392 126 360 113 317 113 265 113 211 126 164 152 124 178 83 214 63 259 63 291 63 319 73 345 95 363 110 380 137 397 177L411 170Z"/>
</g>
<clipPath id="clip_11">
<path transform="matrix(1,0,0,-1,0,720)" d="M111.17 85.88H709.2V661.5675H111.17Z"/>
</clipPath>
<g id="font_2_46">
<path transform="matrix(.001,0,0,.001,0,0)" d="M125 95C140 95 153 89 163 79 173 68 179 55 179 40 179 25 173 12 163 2 152-8 139-13 125-13 110-13 97-8 87 2 76 12 71 25 71 40 71 55 76 68 87 79 97 89 110 95 125 95Z"/>
</g>
<clipPath id="clip_12">
<path transform="matrix(1,0,0,-1,0,720)" d="M111.17 85.88H709.2V661.5675H111.17Z"/>
</clipPath>
<clipPath id="clip_13">
<path transform="matrix(1,0,0,-1,0,720)" d="M111.17 85.88H709.2V661.5675H111.17Z"/>
</clipPath>
<clipPath id="clip_14">
<path transform="matrix(1,0,0,-1,0,720)" d="M111.17 85.88H709.2V661.5675H111.17Z"/>
</clipPath>
<clipPath id="clip_15">
<path transform="matrix(1,0,0,-1,0,720)" d="M111.17 85.88H709.2V661.5675H111.17Z"/>
</clipPath>
<clipPath id="clip_16">
<path transform="matrix(1,0,0,-1,0,720)" d="M111.17 85.88H709.2V661.5675H111.17Z"/>
</clipPath>
<clipPath id="clip_17">
<path transform="matrix(1,0,0,-1,0,720)" d="M111.17 85.88H709.2V661.5675H111.17Z"/>
</clipPath>
<clipPath id="clip_18">
<path transform="matrix(1,0,0,-1,0,720)" d="M111.17 85.88H709.2V661.5675H111.17Z"/>
</clipPath>
<g id="font_2_65">
<path transform="matrix(.001,0,0,.001,0,0)" d="M458 222H201L156 117C145 91 140 72 140 60 140 49 144 40 154 32 163 24 184 20 216 18V0H8V18C35 22 53 29 62 37 78 53 96 84 117 132L350 677H367L597 126C615 82 632 53 647 40 662 27 683 20 711 18V0H450V18C476 19 493 23 503 31 512 38 517 47 517 59 517 73 510 95 498 126L458 222ZM444 258 332 525 216 258H444Z"/>
</g>
<g id="font_2_114">
<path transform="matrix(.001,0,0,.001,0,0)" d="M162 460V360C199 426 237 460 277 460 295 460 309 454 321 444 333 433 339 420 339 406 339 393 334 382 326 374 318 365 308 361 296 361 284 361 272 366 258 378 244 389 233 395 227 395 221 395 214 391 208 385 193 371 178 349 162 319V104C162 79 165 60 171 48 175 39 183 32 194 26 204 20 220 18 240 18V0H11V18C33 18 50 21 62 28 70 33 75 41 79 53 81 59 82 75 82 101V274C82 326 80 357 78 367 76 377 72 384 66 389 60 393 53 396 45 396 35 396 23 393 11 388L6 406 142 460H162Z"/>
</g>
<g id="font_2_121">
<path transform="matrix(.001,0,0,.001,0,0)" d="M6 447H214V429H204C189 429 178 425 171 419 163 413 160 405 160 396 160 383 165 365 176 343L285 118 385 365C391 378 394 391 394 404 394 410 392 414 390 417 387 421 383 424 378 426 372 428 363 429 349 429V447H494V429C482 427 472 425 466 421 460 417 453 410 445 399 441 395 436 382 428 362L246-83C228-126 205-159 177-181 148-203 121-215 95-215 75-215 59-209 47-198 35-187 29-174 29-160 29-146 33-135 42-127 51-119 63-115 79-115 89-115 104-118 123-125 136-130 144-133 147-133 157-133 167-128 179-118 191-108 202-88 214-59L246 18 85 355C80 365 72 377 62 393 54 404 47 412 42 416 34 420 22 425 6 429V447Z"/>
</g>
<clipPath id="clip_19">
<path transform="matrix(1,0,0,-1,0,720)" d="M111.17 85.88H709.2V661.5675H111.17Z"/>
</clipPath>
<clipPath id="clip_20">
<path transform="matrix(1,0,0,-1,138.35318,576.96456)" d="M-10-10H10V10H-10Z"/>
</clipPath>
<clipPath id="clip_21">
<path transform="matrix(1,0,0,-1,206.31113,607.9524)" d="M-10-10H10V10H-10Z"/>
</clipPath>
<clipPath id="clip_22">
<path transform="matrix(1,0,0,-1,274.26908,113.14661)" d="M-10-10H10V10H-10Z"/>
</clipPath>
<clipPath id="clip_23">
<path transform="matrix(1,0,0,-1,342.22703,239.22693)" d="M-10-10H10V10H-10Z"/>
</clipPath>
<clipPath id="clip_24">
<path transform="matrix(1,0,0,-1,410.18498,220.19594)" d="M-10-10H10V10H-10Z"/>
</clipPath>
<clipPath id="clip_25">
<path transform="matrix(1,0,0,-1,478.1429,266.1875)" d="M-10-10H10V10H-10Z"/>
</clipPath>
<clipPath id="clip_26">
<path transform="matrix(1,0,0,-1,546.1009,309.8002)" d="M-10-10H10V10H-10Z"/>
</clipPath>
<clipPath id="clip_27">
<path transform="matrix(1,0,0,-1,614.05886,228.91849)" d="M-10-10H10V10H-10Z"/>
</clipPath>
<clipPath id="clip_28">
<path transform="matrix(1,0,0,-1,682.0168,286.8044)" d="M-10-10H10V10H-10Z"/>
</clipPath>
<clipPath id="clip_29">
<path transform="matrix(1,0,0,-1,0,720)" d="M111.17 85.88H709.2V661.5675H111.17Z"/>
</clipPath>
<clipPath id="clip_30">
<path transform="matrix(1,0,0,-1,138.35318,576.96456)" d="M-10-10H10V10H-10Z"/>
</clipPath>
<clipPath id="clip_31">
<path transform="matrix(1,0,0,-1,206.31113,587.33547)" d="M-10-10H10V10H-10Z"/>
</clipPath>
<clipPath id="clip_32">
<path transform="matrix(1,0,0,-1,274.26908,84.6001)" d="M-10-10H10V10H-10Z"/>
</clipPath>
<clipPath id="clip_33">
<path transform="matrix(1,0,0,-1,342.22703,141.69307)" d="M-10-10H10V10H-10Z"/>
</clipPath>
<clipPath id="clip_34">
<path transform="matrix(1,0,0,-1,410.18498,149.62265)" d="M-10-10H10V10H-10Z"/>
</clipPath>
<clipPath id="clip_35">
<path transform="matrix(1,0,0,-1,478.1429,186.09873)" d="M-10-10H10V10H-10Z"/>
</clipPath>
<clipPath id="clip_36">
<path transform="matrix(1,0,0,-1,546.1009,220.98888)" d="M-10-10H10V10H-10Z"/>
</clipPath>
<clipPath id="clip_37">
<path transform="matrix(1,0,0,-1,614.05886,228.1255)" d="M-10-10H10V10H-10Z"/>
</clipPath>
<clipPath id="clip_38">
<path transform="matrix(1,0,0,-1,682.0168,258.2579)" d="M-10-10H10V10H-10Z"/>
</clipPath>
<clipPath id="clip_39">
<path transform="matrix(1,0,0,-1,0,720)" d="M111.17 85.88H709.2V661.5675H111.17Z"/>
</clipPath>
<clipPath id="clip_40">
<path transform="matrix(1,0,0,-1,138.35318,576.96456)" d="M-12.071068-12.071068H12.071068V12.071068H-12.071068Z"/>
</clipPath>
<clipPath id="clip_41">
<path transform="matrix(1,0,0,-1,206.31113,591.3003)" d="M-12.071068-12.071068H12.071068V12.071068H-12.071068Z"/>
</clipPath>
<clipPath id="clip_42">
<path transform="matrix(1,0,0,-1,274.26908,125.833957)" d="M-12.071068-12.071068H12.071068V12.071068H-12.071068Z"/>
</clipPath>
<clipPath id="clip_43">
<path transform="matrix(1,0,0,-1,342.22703,208.30158)" d="M-12.071068-12.071068H12.071068V12.071068H-12.071068Z"/>
</clipPath>
<clipPath id="clip_44">
<path transform="matrix(1,0,0,-1,410.18498,189.27059)" d="M-12.071068-12.071068H12.071068V12.071068H-12.071068Z"/>
</clipPath>
<clipPath id="clip_45">
<path transform="matrix(1,0,0,-1,478.1429,217.02411)" d="M-12.071068-12.071068H12.071068V12.071068H-12.071068Z"/>
</clipPath>
<clipPath id="clip_46">
<path transform="matrix(1,0,0,-1,546.1009,217.81707)" d="M-12.071068-12.071068H12.071068V12.071068H-12.071068Z"/>
</clipPath>
<clipPath id="clip_47">
<path transform="matrix(1,0,0,-1,614.05886,199.57903)" d="M-12.071068-12.071068H12.071068V12.071068H-12.071068Z"/>
</clipPath>
<clipPath id="clip_48">
<path transform="matrix(1,0,0,-1,682.0168,250.32834)" d="M-12.071068-12.071068H12.071068V12.071068H-12.071068Z"/>
</clipPath>
<clipPath id="clip_49">
<path transform="matrix(1,0,0,-1,0,720)" d="M111.17 85.88H709.2V661.5675H111.17Z"/>
</clipPath>
<clipPath id="clip_50">
<path transform="matrix(1,0,0,-1,138.35318,576.96456)" d="M-10-10H10V10H-10Z"/>
</clipPath>
<clipPath id="clip_51">
<path transform="matrix(1,0,0,-1,206.31113,556.4101)" d="M-10-10H10V10H-10Z"/>
</clipPath>
<clipPath id="clip_52">
<path transform="matrix(1,0,0,-1,274.26908,94.90854)" d="M-10-10H10V10H-10Z"/>
</clipPath>
<clipPath id="clip_53">
<path transform="matrix(1,0,0,-1,342.22703,129.79869)" d="M-10-10H10V10H-10Z"/>
</clipPath>
<clipPath id="clip_54">
<path transform="matrix(1,0,0,-1,410.18498,128.21277)" d="M-10-10H10V10H-10Z"/>
</clipPath>
<clipPath id="clip_55">
<path transform="matrix(1,0,0,-1,478.1429,158.34517)" d="M-10-10H10V10H-10Z"/>
</clipPath>
<clipPath id="clip_56">
<path transform="matrix(1,0,0,-1,546.1009,170.23954)" d="M-10-10H10V10H-10Z"/>
</clipPath>
<clipPath id="clip_57">
<path transform="matrix(1,0,0,-1,614.05886,166.27475)" d="M-10-10H10V10H-10Z"/>
</clipPath>
<clipPath id="clip_58">
<path transform="matrix(1,0,0,-1,682.0168,173.41138)" d="M-10-10H10V10H-10Z"/>
</clipPath>
<clipPath id="clip_59">
<path transform="matrix(1,0,0,-1,0,720)" d="M111.17 85.88H709.2V661.5675H111.17Z"/>
</clipPath>
<clipPath id="clip_60">
<path transform="matrix(1,0,0,-1,138.35318,576.96456)" d="M-10-10H10V10H-10Z"/>
</clipPath>
<clipPath id="clip_61">
<path transform="matrix(1,0,0,-1,206.31113,584.9566)" d="M-10-10H10V10H-10Z"/>
</clipPath>
<clipPath id="clip_62">
<path transform="matrix(1,0,0,-1,274.26908,86.186038)" d="M-10-10H10V10H-10Z"/>
</clipPath>
<clipPath id="clip_63">
<path transform="matrix(1,0,0,-1,342.22703,92.5297)" d="M-10-10H10V10H-10Z"/>
</clipPath>
<clipPath id="clip_64">
<path transform="matrix(1,0,0,-1,410.18498,102.0452)" d="M-10-10H10V10H-10Z"/>
</clipPath>
<clipPath id="clip_65">
<path transform="matrix(1,0,0,-1,478.1429,115.52548)" d="M-10-10H10V10H-10Z"/>
</clipPath>
<clipPath id="clip_66">
<path transform="matrix(1,0,0,-1,546.1009,119.49027)" d="M-10-10H10V10H-10Z"/>
</clipPath>
<clipPath id="clip_67">
<path transform="matrix(1,0,0,-1,614.05886,122.6621)" d="M-10-10H10V10H-10Z"/>
</clipPath>
<clipPath id="clip_68">
<path transform="matrix(1,0,0,-1,682.0168,132.1776)" d="M-10-10H10V10H-10Z"/>
</clipPath>
<clipPath id="clip_69">
<path transform="matrix(1,0,0,-1,0,720)" d="M111.17 85.88H709.2V661.5675H111.17Z"/>
</clipPath>
<g id="font_2_111">
<path transform="matrix(.001,0,0,.001,0,0)" d="M250 460C318 460 372 434 413 383 447 339 465 288 465 232 465 192 455 151 436 110 417 69 391 38 357 18 323-2 286-13 245-13 177-13 124 13 84 67 50 112 34 163 34 219 34 260 44 301 64 341 84 381 111 411 144 431 177 450 212 460 250 460ZM235 429C217 429 200 423 183 413 165 403 151 385 141 359 130 333 125 300 125 260 125 195 137 139 163 92 189 44 223 21 266 21 297 21 323 34 344 60 364 86 375 130 375 194 375 273 357 336 323 382 300 413 271 429 235 429Z"/>
</g>
<g id="font_2_102">
<path transform="matrix(.001,0,0,.001,0,0)" d="M206 412V118C206 76 210 50 220 39 232 25 248 18 268 18H309V0H42V18H62C74 18 86 21 97 27 107 33 115 42 119 53 123 64 125 86 125 118V412H39V447H125V477C125 521 132 558 146 589 160 620 182 645 212 664 242 683 275 693 312 693 346 693 377 682 406 660 425 645 435 629 435 611 435 601 430 591 422 583 413 574 404 570 395 570 387 570 378 572 370 578 362 583 352 595 340 613 328 631 317 643 307 649 297 655 285 658 273 658 258 658 245 654 235 646 225 638 217 625 213 609 208 592 206 549 206 479V447H321V412H206Z"/>
</g>
<g id="font_2_116">
<path transform="matrix(.001,0,0,.001,0,0)" d="M161 594V447H266V413H161V123C161 94 165 74 173 64 181 54 192 49 206 49 216 49 227 52 237 59 247 65 254 75 260 89H279C267 57 251 33 231 17 210 1 189-6 167-6 151-6 136-2 122 6 108 14 97 25 91 41 84 56 81 80 81 112V413H10V429C28 436 46 448 65 465 83 482 100 502 115 526 122 538 132 561 146 594H161Z"/>
</g>
<g id="font_2_104">
<path transform="matrix(.001,0,0,.001,0,0)" d="M163 694V367C199 407 227 432 248 443 269 454 290 460 312 460 337 460 359 453 377 439 395 425 409 403 418 374 424 352 427 314 427 259V101C427 73 429 53 434 43 437 35 442 28 450 24 458 20 472 18 494 18V0H274V18H284C304 18 319 21 327 27 335 33 341 43 345 55 345 60 346 75 346 101V259C346 308 343 340 338 355 333 370 325 381 314 389 303 397 290 401 274 401 258 401 241 396 224 388 207 380 187 363 163 337V101C163 70 164 51 168 44 171 36 177 30 187 25 196 20 212 18 235 18V0H13V18C33 18 48 21 60 27 66 30 72 36 76 45 80 54 82 73 82 101V506C82 557 80 588 78 600 75 612 71 620 66 624 61 628 54 630 46 630 39 630 28 627 13 623L6 640 140 694H163Z"/>
</g>
<g id="font_2_100">
<path transform="matrix(.001,0,0,.001,0,0)" d="M347 50C325 27 303 11 283 1 262-8 240-13 216-13 167-13 124 7 88 48 51 88 33 141 33 205 33 269 53 327 93 381 133 434 186 461 250 461 289 461 321 448 347 423V506C347 557 345 588 343 600 341 612 337 620 332 624 326 628 320 630 313 630 304 630 293 627 279 623L272 640 406 694H428V177C428 125 429 93 431 81 433 69 437 61 443 57 448 52 454 50 462 50 470 50 482 53 497 59L502 42 370-13H347V50ZM347 84V315C345 337 339 357 329 375 319 393 307 407 291 417 275 426 259 431 244 431 215 431 189 418 167 392 137 358 123 308 123 244 123 178 137 127 165 92 193 57 225 40 261 40 291 40 319 54 347 84Z"/>
</g>
<g id="font_2_105">
<path transform="matrix(.001,0,0,.001,0,0)" d="M145 694C159 694 170 689 180 680 189 670 194 659 194 645 194 631 189 620 180 610 170 600 159 595 145 595 131 595 120 600 110 610 100 620 95 631 95 645 95 659 99 670 109 680 119 689 131 694 145 694ZM186 460V101C186 73 188 54 192 45 196 35 202 28 210 24 218 20 232 18 253 18V0H36V18C58 18 72 20 80 24 87 28 93 35 97 45 101 55 104 73 104 101V273C104 321 102 353 100 368 98 378 94 385 89 389 84 393 77 396 69 396 60 396 49 393 36 388L29 406 164 460H186Z"/>
</g>
<g id="font_70_49">
<path transform="matrix(.001,0,0,.001,0,0)" d="M124 83H285V639L110 604V694L284 729H383V83H544V0H124V83Z"/>
</g>
<g id="font_2_40">
<path transform="matrix(.001,0,0,.001,0,0)" d="M311-195V-213C261-188 220-159 188-126 140-78 104-23 79 40 53 104 41 170 41 240 41 340 65 432 115 516 165 599 230 658 311 694V674C270 652 237 621 211 583 185 544 166 495 154 437 141 378 135 316 135 252 135 182 140 119 151 63 159 18 170-17 182-44 194-71 210-97 230-123 250-148 277-172 311-195Z"/>
</g>
<g id="font_2_68">
<path transform="matrix(.001,0,0,.001,0,0)" d="M17 0V18H42C70 18 90 27 102 45 108 55 112 79 112 117V545C112 586 107 612 99 623 86 637 67 644 42 644H17V662H287C385 662 460 650 512 628 564 606 605 568 637 516 668 464 684 403 684 334 684 242 656 165 600 104 537 34 441 0 313 0H17ZM206 48C247 38 282 34 310 34 385 34 448 60 498 113 548 166 573 238 573 330 573 421 548 493 498 546 448 598 384 625 306 625 276 625 243 620 206 611V48Z"/>
</g>
<g id="font_2_41">
<path transform="matrix(.001,0,0,.001,0,0)" d="M22 674V694C72 670 113 641 146 608 192 560 228 505 254 441 279 377 292 310 292 241 292 139 267 47 217-35 167-117 102-177 22-213V-195C62-172 95-141 121-103 147-65 166-16 179 42 191 100 198 162 198 226 198 295 192 358 182 416 173 460 163 496 151 523 139 550 122 576 102 602 82 627 55 651 22 674Z"/>
</g>
<clipPath id="clip_71">
<path transform="matrix(.04,0,0,-.04,514.3139,49.15437)" d="M-141-240H1128V795H-141Z"/>
</clipPath>
</defs>
<path transform="matrix(1,0,0,-1,0,720)" d="M0 0H720V720H0Z" fill="#ffffff"/>
<path transform="matrix(1,0,0,-1,0,720)" d="M111.17 85.88H709.2V661.5675H111.17Z" fill="#ffffff"/>
<g clip-path="url(#clip_1)">
<path transform="matrix(1,0,0,-1,0,720)" stroke-width=".8" stroke-linecap="butt" stroke-dasharray=".8,1.32" stroke-linejoin="round" fill="none" stroke="#bebebe" d="M138.35318 85.88V661.5675"/>
</g>
<path transform="matrix(1,0,0,-1,0,720)" d="M138.35318 85.88V82.38"/>
<path transform="matrix(1,0,0,-1,0,720)" stroke-width=".8" stroke-linecap="butt" stroke-linejoin="round" fill="none" stroke="#000000" d="M138.35318 85.88V82.38"/>
<use data-text="0" xlink:href="#font_2_48" transform="matrix(30,0,0,-30,130.85318,661.9481)"/>
<g clip-path="url(#clip_3)">
<path transform="matrix(1,0,0,-1,0,720)" stroke-width=".8" stroke-linecap="butt" stroke-dasharray=".8,1.32" stroke-linejoin="round" fill="none" stroke="#bebebe" d="M206.31114 85.88V661.5675"/>
</g>
<path transform="matrix(1,0,0,-1,0,720)" d="M206.31114 85.88V82.38"/>
<path transform="matrix(1,0,0,-1,0,720)" stroke-width=".8" stroke-linecap="butt" stroke-linejoin="round" fill="none" stroke="#000000" d="M206.31114 85.88V82.38"/>
<use data-text="1" xlink:href="#font_2_49" transform="matrix(30,0,0,-30,198.81114,661.9481)"/>
<g clip-path="url(#clip_4)">
<path transform="matrix(1,0,0,-1,0,720)" stroke-width=".8" stroke-linecap="butt" stroke-dasharray=".8,1.32" stroke-linejoin="round" fill="none" stroke="#bebebe" d="M274.2691 85.88V661.5675"/>
</g>
<path transform="matrix(1,0,0,-1,0,720)" d="M274.2691 85.88V82.38"/>
<path transform="matrix(1,0,0,-1,0,720)" stroke-width=".8" stroke-linecap="butt" stroke-linejoin="round" fill="none" stroke="#000000" d="M274.2691 85.88V82.38"/>
<use data-text="2" xlink:href="#font_2_50" transform="matrix(30,0,0,-30,266.7691,661.9481)"/>
<g clip-path="url(#clip_5)">
<path transform="matrix(1,0,0,-1,0,720)" stroke-width=".8" stroke-linecap="butt" stroke-dasharray=".8,1.32" stroke-linejoin="round" fill="none" stroke="#bebebe" d="M342.22706 85.88V661.5675"/>
</g>
<path transform="matrix(1,0,0,-1,0,720)" d="M342.22706 85.88V82.38"/>
<path transform="matrix(1,0,0,-1,0,720)" stroke-width=".8" stroke-linecap="butt" stroke-linejoin="round" fill="none" stroke="#000000" d="M342.22706 85.88V82.38"/>
<use data-text="3" xlink:href="#font_2_51" transform="matrix(30,0,0,-30,334.72706,661.9481)"/>
<g clip-path="url(#clip_6)">
<path transform="matrix(1,0,0,-1,0,720)" stroke-width=".8" stroke-linecap="butt" stroke-dasharray=".8,1.32" stroke-linejoin="round" fill="none" stroke="#bebebe" d="M410.185 85.88V661.5675"/>
</g>
<path transform="matrix(1,0,0,-1,0,720)" d="M410.185 85.88V82.38"/>
<path transform="matrix(1,0,0,-1,0,720)" stroke-width=".8" stroke-linecap="butt" stroke-linejoin="round" fill="none" stroke="#000000" d="M410.185 85.88V82.38"/>
<use data-text="4" xlink:href="#font_2_52" transform="matrix(30,0,0,-30,402.685,661.9481)"/>
<g clip-path="url(#clip_7)">
<path transform="matrix(1,0,0,-1,0,720)" stroke-width=".8" stroke-linecap="butt" stroke-dasharray=".8,1.32" stroke-linejoin="round" fill="none" stroke="#bebebe" d="M478.14295 85.88V661.5675"/>
</g>
<path transform="matrix(1,0,0,-1,0,720)" d="M478.14295 85.88V82.38"/>
<path transform="matrix(1,0,0,-1,0,720)" stroke-width=".8" stroke-linecap="butt" stroke-linejoin="round" fill="none" stroke="#000000" d="M478.14295 85.88V82.38"/>
<use data-text="5" xlink:href="#font_2_53" transform="matrix(30,0,0,-30,470.64295,661.9481)"/>
<g clip-path="url(#clip_8)">
<path transform="matrix(1,0,0,-1,0,720)" stroke-width=".8" stroke-linecap="butt" stroke-dasharray=".8,1.32" stroke-linejoin="round" fill="none" stroke="#bebebe" d="M546.1009 85.88V661.5675"/>
</g>
<path transform="matrix(1,0,0,-1,0,720)" d="M546.1009 85.88V82.38"/>
<path transform="matrix(1,0,0,-1,0,720)" stroke-width=".8" stroke-linecap="butt" stroke-linejoin="round" fill="none" stroke="#000000" d="M546.1009 85.88V82.38"/>
<use data-text="6" xlink:href="#font_2_54" transform="matrix(30,0,0,-30,538.6009,661.9481)"/>
<g clip-path="url(#clip_9)">
<path transform="matrix(1,0,0,-1,0,720)" stroke-width=".8" stroke-linecap="butt" stroke-dasharray=".8,1.32" stroke-linejoin="round" fill="none" stroke="#bebebe" d="M614.05886 85.88V661.5675"/>
</g>
<path transform="matrix(1,0,0,-1,0,720)" d="M614.05886 85.88V82.38"/>
<path transform="matrix(1,0,0,-1,0,720)" stroke-width=".8" stroke-linecap="butt" stroke-linejoin="round" fill="none" stroke="#000000" d="M614.05886 85.88V82.38"/>
<use data-text="7" xlink:href="#font_2_55" transform="matrix(30,0,0,-30,606.55886,661.9481)"/>
<g clip-path="url(#clip_10)">
<path transform="matrix(1,0,0,-1,0,720)" stroke-width=".8" stroke-linecap="butt" stroke-dasharray=".8,1.32" stroke-linejoin="round" fill="none" stroke="#bebebe" d="M682.01687 85.88V661.5675"/>
</g>
<path transform="matrix(1,0,0,-1,0,720)" d="M682.01687 85.88V82.38"/>
<path transform="matrix(1,0,0,-1,0,720)" stroke-width=".8" stroke-linecap="butt" stroke-linejoin="round" fill="none" stroke="#000000" d="M682.01687 85.88V82.38"/>
<use data-text="8" xlink:href="#font_2_56" transform="matrix(30,0,0,-30,674.51687,661.9481)"/>
<use data-text="T" xlink:href="#font_2_84" transform="matrix(40,0,0,-40,294.40376,700.15127)"/>
<use data-text="a" xlink:href="#font_2_97" transform="matrix(40,0,0,-40,316.0625,700.15127)"/>
<use data-text="s" xlink:href="#font_2_115" transform="matrix(40,0,0,-40,333.8225,700.15127)"/>
<use data-text="k" xlink:href="#font_2_107" transform="matrix(40,0,0,-40,349.3825,700.15127)"/>
<use data-text=" " xlink:href="#font_2_32" transform="matrix(40,0,0,-40,369.3825,700.15127)"/>
<use data-text="s" xlink:href="#font_2_115" transform="matrix(40,0,0,-40,379.3825,700.15127)"/>
<use data-text="e" xlink:href="#font_2_101" transform="matrix(40,0,0,-40,394.9425,700.15127)"/>
<use data-text="q" xlink:href="#font_2_113" transform="matrix(40,0,0,-40,412.7025,700.15127)"/>
<use data-text="u" xlink:href="#font_2_117" transform="matrix(40,0,0,-40,432.7025,700.15127)"/>
<use data-text="e" xlink:href="#font_2_101" transform="matrix(40,0,0,-40,452.7025,700.15127)"/>
<use data-text="n" xlink:href="#font_2_110" transform="matrix(40,0,0,-40,470.46253,700.15127)"/>
<use data-text="c" xlink:href="#font_2_99" transform="matrix(40,0,0,-40,490.46253,700.15127)"/>
<use data-text="e" xlink:href="#font_2_101" transform="matrix(40,0,0,-40,508.22254,700.15127)"/>
<g clip-path="url(#clip_11)">
<path transform="matrix(1,0,0,-1,0,720)" stroke-width=".8" stroke-linecap="butt" stroke-dasharray=".8,1.32" stroke-linejoin="round" fill="none" stroke="#bebebe" d="M111.17 151.21974H709.2"/>
</g>
<path transform="matrix(1,0,0,-1,0,720)" d="M111.17 151.21974H107.67"/>
<path transform="matrix(1,0,0,-1,0,720)" stroke-width=".8" stroke-linecap="butt" stroke-linejoin="round" fill="none" stroke="#000000" d="M111.17 151.21974H107.67"/>
<use data-text="0" xlink:href="#font_2_48" transform="matrix(30,0,0,-30,51.67,579.19436)"/>
<use data-text="." xlink:href="#font_2_46" transform="matrix(30,0,0,-30,66.67,579.19436)"/>
<use data-text="4" xlink:href="#font_2_52" transform="matrix(30,0,0,-30,74.17,579.19436)"/>
<use data-text="5" xlink:href="#font_2_53" transform="matrix(30,0,0,-30,89.17,579.19436)"/>
<g clip-path="url(#clip_12)">
<path transform="matrix(1,0,0,-1,0,720)" stroke-width=".8" stroke-linecap="butt" stroke-dasharray=".8,1.32" stroke-linejoin="round" fill="none" stroke="#bebebe" d="M111.17 218.30399H709.2"/>
</g>
<path transform="matrix(1,0,0,-1,0,720)" d="M111.17 218.30399H107.67"/>
<path transform="matrix(1,0,0,-1,0,720)" stroke-width=".8" stroke-linecap="butt" stroke-linejoin="round" fill="none" stroke="#000000" d="M111.17 218.30399H107.67"/>
<use data-text="0" xlink:href="#font_2_48" transform="matrix(30,0,0,-30,51.67,512.1101)"/>
<use data-text="." xlink:href="#font_2_46" transform="matrix(30,0,0,-30,66.67,512.1101)"/>
<use data-text="5" xlink:href="#font_2_53" transform="matrix(30,0,0,-30,74.17,512.1101)"/>
<use data-text="0" xlink:href="#font_2_48" transform="matrix(30,0,0,-30,89.17,512.1101)"/>
<g clip-path="url(#clip_13)">
<path transform="matrix(1,0,0,-1,0,720)" stroke-width=".8" stroke-linecap="butt" stroke-dasharray=".8,1.32" stroke-linejoin="round" fill="none" stroke="#bebebe" d="M111.17 285.38825H709.2"/>
</g>
<path transform="matrix(1,0,0,-1,0,720)" d="M111.17 285.38825H107.67"/>
<path transform="matrix(1,0,0,-1,0,720)" stroke-width=".8" stroke-linecap="butt" stroke-linejoin="round" fill="none" stroke="#000000" d="M111.17 285.38825H107.67"/>
<use data-text="0" xlink:href="#font_2_48" transform="matrix(30,0,0,-30,51.67,445.02583)"/>
<use data-text="." xlink:href="#font_2_46" transform="matrix(30,0,0,-30,66.67,445.02583)"/>
<use data-text="5" xlink:href="#font_2_53" transform="matrix(30,0,0,-30,74.17,445.02583)"/>
<use data-text="5" xlink:href="#font_2_53" transform="matrix(30,0,0,-30,89.17,445.02583)"/>
<g clip-path="url(#clip_14)">
<path transform="matrix(1,0,0,-1,0,720)" stroke-width=".8" stroke-linecap="butt" stroke-dasharray=".8,1.32" stroke-linejoin="round" fill="none" stroke="#bebebe" d="M111.17 352.47248H709.2"/>
</g>
<path transform="matrix(1,0,0,-1,0,720)" d="M111.17 352.47248H107.67"/>
<path transform="matrix(1,0,0,-1,0,720)" stroke-width=".8" stroke-linecap="butt" stroke-linejoin="round" fill="none" stroke="#000000" d="M111.17 352.47248H107.67"/>
<use data-text="0" xlink:href="#font_2_48" transform="matrix(30,0,0,-30,51.67,377.9416)"/>
<use data-text="." xlink:href="#font_2_46" transform="matrix(30,0,0,-30,66.67,377.9416)"/>
<use data-text="6" xlink:href="#font_2_54" transform="matrix(30,0,0,-30,74.17,377.9416)"/>
<use data-text="0" xlink:href="#font_2_48" transform="matrix(30,0,0,-30,89.17,377.9416)"/>
<g clip-path="url(#clip_15)">
<path transform="matrix(1,0,0,-1,0,720)" stroke-width=".8" stroke-linecap="butt" stroke-dasharray=".8,1.32" stroke-linejoin="round" fill="none" stroke="#bebebe" d="M111.17 419.55674H709.2"/>
</g>
<path transform="matrix(1,0,0,-1,0,720)" d="M111.17 419.55674H107.67"/>
<path transform="matrix(1,0,0,-1,0,720)" stroke-width=".8" stroke-linecap="butt" stroke-linejoin="round" fill="none" stroke="#000000" d="M111.17 419.55674H107.67"/>
<use data-text="0" xlink:href="#font_2_48" transform="matrix(30,0,0,-30,51.67,310.85734)"/>
<use data-text="." xlink:href="#font_2_46" transform="matrix(30,0,0,-30,66.67,310.85734)"/>
<use data-text="6" xlink:href="#font_2_54" transform="matrix(30,0,0,-30,74.17,310.85734)"/>
<use data-text="5" xlink:href="#font_2_53" transform="matrix(30,0,0,-30,89.17,310.85734)"/>
<g clip-path="url(#clip_16)">
<path transform="matrix(1,0,0,-1,0,720)" stroke-width=".8" stroke-linecap="butt" stroke-dasharray=".8,1.32" stroke-linejoin="round" fill="none" stroke="#bebebe" d="M111.17 486.64097H709.2"/>
</g>
<path transform="matrix(1,0,0,-1,0,720)" d="M111.17 486.64097H107.67"/>
<path transform="matrix(1,0,0,-1,0,720)" stroke-width=".8" stroke-linecap="butt" stroke-linejoin="round" fill="none" stroke="#000000" d="M111.17 486.64097H107.67"/>
<use data-text="0" xlink:href="#font_2_48" transform="matrix(30,0,0,-30,51.67,243.7731)"/>
<use data-text="." xlink:href="#font_2_46" transform="matrix(30,0,0,-30,66.67,243.7731)"/>
<use data-text="7" xlink:href="#font_2_55" transform="matrix(30,0,0,-30,74.17,243.7731)"/>
<use data-text="0" xlink:href="#font_2_48" transform="matrix(30,0,0,-30,89.17,243.7731)"/>
<g clip-path="url(#clip_17)">
<path transform="matrix(1,0,0,-1,0,720)" stroke-width=".8" stroke-linecap="butt" stroke-dasharray=".8,1.32" stroke-linejoin="round" fill="none" stroke="#bebebe" d="M111.17 553.7252H709.2"/>
</g>
<path transform="matrix(1,0,0,-1,0,720)" d="M111.17 553.7252H107.67"/>
<path transform="matrix(1,0,0,-1,0,720)" stroke-width=".8" stroke-linecap="butt" stroke-linejoin="round" fill="none" stroke="#000000" d="M111.17 553.7252H107.67"/>
<use data-text="0" xlink:href="#font_2_48" transform="matrix(30,0,0,-30,51.67,176.68885)"/>
<use data-text="." xlink:href="#font_2_46" transform="matrix(30,0,0,-30,66.67,176.68885)"/>
<use data-text="7" xlink:href="#font_2_55" transform="matrix(30,0,0,-30,74.17,176.68885)"/>
<use data-text="5" xlink:href="#font_2_53" transform="matrix(30,0,0,-30,89.17,176.68885)"/>
<g clip-path="url(#clip_18)">
<path transform="matrix(1,0,0,-1,0,720)" stroke-width=".8" stroke-linecap="butt" stroke-dasharray=".8,1.32" stroke-linejoin="round" fill="none" stroke="#bebebe" d="M111.17 620.80947H709.2"/>
</g>
<path transform="matrix(1,0,0,-1,0,720)" d="M111.17 620.80947H107.67"/>
<path transform="matrix(1,0,0,-1,0,720)" stroke-width=".8" stroke-linecap="butt" stroke-linejoin="round" fill="none" stroke="#000000" d="M111.17 620.80947H107.67"/>
<use data-text="0" xlink:href="#font_2_48" transform="matrix(30,0,0,-30,51.67,109.604618)"/>
<use data-text="." xlink:href="#font_2_46" transform="matrix(30,0,0,-30,66.67,109.604618)"/>
<use data-text="8" xlink:href="#font_2_56" transform="matrix(30,0,0,-30,74.17,109.604618)"/>
<use data-text="0" xlink:href="#font_2_48" transform="matrix(30,0,0,-30,89.17,109.604618)"/>
<use data-text="A" xlink:href="#font_2_65" transform="matrix(0,-40,-40,-0,39.029375,422.88563)"/>
<use data-text="c" xlink:href="#font_2_99" transform="matrix(0,-40,-40,-0,39.029375,394.0056)"/>
<use data-text="c" xlink:href="#font_2_99" transform="matrix(0,-40,-40,-0,39.029375,376.2456)"/>
<use data-text="u" xlink:href="#font_2_117" transform="matrix(0,-40,-40,-0,39.029375,358.4856)"/>
<use data-text="r" xlink:href="#font_2_114" transform="matrix(0,-40,-40,-0,39.029375,338.4856)"/>
<use data-text="a" xlink:href="#font_2_97" transform="matrix(0,-40,-40,-0,39.029375,325.16563)"/>
<use data-text="c" xlink:href="#font_2_99" transform="matrix(0,-40,-40,-0,39.029375,307.4056)"/>
<use data-text="y" xlink:href="#font_2_121" transform="matrix(0,-40,-40,-0,39.029375,289.6456)"/>
<g clip-path="url(#clip_19)">
<path transform="matrix(1,0,0,-1,0,720)" stroke-width="3" stroke-linecap="square" stroke-linejoin="round" fill="none" stroke="#92cd00" d="M138.35318 143.03546 206.31114 112.047618 274.2691 606.8534 342.22706 480.77308 410.185 499.80409 478.14295 453.8125 546.1009 410.19984 614.05886 491.08155 682.01687 433.1956"/>
<g clip-path="url(#clip_20)">
<path transform="matrix(1,0,0,-1,138.35318,576.96456)" d="M0-5C1.326016-5 2.597899-4.473168 3.535534-3.535534 4.473168-2.597899 5-1.326016 5 0 5 1.326016 4.473168 2.597899 3.535534 3.535534 2.597899 4.473168 1.326016 5 0 5-1.326016 5-2.597899 4.473168-3.535534 3.535534-4.473168 2.597899-5 1.326016-5 0-5-1.326016-4.473168-2.597899-3.535534-3.535534-2.597899-4.473168-1.326016-5 0-5Z" fill="#92cd00"/>
<path transform="matrix(1,0,0,-1,138.35318,576.96456)" stroke-width="1" stroke-linecap="butt" stroke-linejoin="round" fill="none" stroke="#92cd00" d="M0-5C1.326016-5 2.597899-4.473168 3.535534-3.535534 4.473168-2.597899 5-1.326016 5 0 5 1.326016 4.473168 2.597899 3.535534 3.535534 2.597899 4.473168 1.326016 5 0 5-1.326016 5-2.597899 4.473168-3.535534 3.535534-4.473168 2.597899-5 1.326016-5 0-5-1.326016-4.473168-2.597899-3.535534-3.535534-2.597899-4.473168-1.326016-5 0-5Z"/>
</g>
<g clip-path="url(#clip_21)">
<path transform="matrix(1,0,0,-1,206.31113,607.9524)" d="M0-5C1.326016-5 2.597899-4.473168 3.535534-3.535534 4.473168-2.597899 5-1.326016 5 0 5 1.326016 4.473168 2.597899 3.535534 3.535534 2.597899 4.473168 1.326016 5 0 5-1.326016 5-2.597899 4.473168-3.535534 3.535534-4.473168 2.597899-5 1.326016-5 0-5-1.326016-4.473168-2.597899-3.535534-3.535534-2.597899-4.473168-1.326016-5 0-5Z" fill="#92cd00"/>
<path transform="matrix(1,0,0,-1,206.31113,607.9524)" stroke-width="1" stroke-linecap="butt" stroke-linejoin="round" fill="none" stroke="#92cd00" d="M0-5C1.326016-5 2.597899-4.473168 3.535534-3.535534 4.473168-2.597899 5-1.326016 5 0 5 1.326016 4.473168 2.597899 3.535534 3.535534 2.597899 4.473168 1.326016 5 0 5-1.326016 5-2.597899 4.473168-3.535534 3.535534-4.473168 2.597899-5 1.326016-5 0-5-1.326016-4.473168-2.597899-3.535534-3.535534-2.597899-4.473168-1.326016-5 0-5Z"/>
</g>
<g clip-path="url(#clip_22)">
<path transform="matrix(1,0,0,-1,274.26908,113.14661)" d="M0-5C1.326016-5 2.597899-4.473168 3.535534-3.535534 4.473168-2.597899 5-1.326016 5 0 5 1.326016 4.473168 2.597899 3.535534 3.535534 2.597899 4.473168 1.326016 5 0 5-1.326016 5-2.597899 4.473168-3.535534 3.535534-4.473168 2.597899-5 1.326016-5 0-5-1.326016-4.473168-2.597899-3.535534-3.535534-2.597899-4.473168-1.326016-5 0-5Z" fill="#92cd00"/>
<path transform="matrix(1,0,0,-1,274.26908,113.14661)" stroke-width="1" stroke-linecap="butt" stroke-linejoin="round" fill="none" stroke="#92cd00" d="M0-5C1.326016-5 2.597899-4.473168 3.535534-3.535534 4.473168-2.597899 5-1.326016 5 0 5 1.326016 4.473168 2.597899 3.535534 3.535534 2.597899 4.473168 1.326016 5 0 5-1.326016 5-2.597899 4.473168-3.535534 3.535534-4.473168 2.597899-5 1.326016-5 0-5-1.326016-4.473168-2.597899-3.535534-3.535534-2.597899-4.473168-1.326016-5 0-5Z"/>
</g>
<g clip-path="url(#clip_23)">
<path transform="matrix(1,0,0,-1,342.22703,239.22693)" d="M0-5C1.326016-5 2.597899-4.473168 3.535534-3.535534 4.473168-2.597899 5-1.326016 5 0 5 1.326016 4.473168 2.597899 3.535534 3.535534 2.597899 4.473168 1.326016 5 0 5-1.326016 5-2.597899 4.473168-3.535534 3.535534-4.473168 2.597899-5 1.326016-5 0-5-1.326016-4.473168-2.597899-3.535534-3.535534-2.597899-4.473168-1.326016-5 0-5Z" fill="#92cd00"/>
<path transform="matrix(1,0,0,-1,342.22703,239.22693)" stroke-width="1" stroke-linecap="butt" stroke-linejoin="round" fill="none" stroke="#92cd00" d="M0-5C1.326016-5 2.597899-4.473168 3.535534-3.535534 4.473168-2.597899 5-1.326016 5 0 5 1.326016 4.473168 2.597899 3.535534 3.535534 2.597899 4.473168 1.326016 5 0 5-1.326016 5-2.597899 4.473168-3.535534 3.535534-4.473168 2.597899-5 1.326016-5 0-5-1.326016-4.473168-2.597899-3.535534-3.535534-2.597899-4.473168-1.326016-5 0-5Z"/>
</g>
<g clip-path="url(#clip_24)">
<path transform="matrix(1,0,0,-1,410.18498,220.19594)" d="M0-5C1.326016-5 2.597899-4.473168 3.535534-3.535534 4.473168-2.597899 5-1.326016 5 0 5 1.326016 4.473168 2.597899 3.535534 3.535534 2.597899 4.473168 1.326016 5 0 5-1.326016 5-2.597899 4.473168-3.535534 3.535534-4.473168 2.597899-5 1.326016-5 0-5-1.326016-4.473168-2.597899-3.535534-3.535534-2.597899-4.473168-1.326016-5 0-5Z" fill="#92cd00"/>
<path transform="matrix(1,0,0,-1,410.18498,220.19594)" stroke-width="1" stroke-linecap="butt" stroke-linejoin="round" fill="none" stroke="#92cd00" d="M0-5C1.326016-5 2.597899-4.473168 3.535534-3.535534 4.473168-2.597899 5-1.326016 5 0 5 1.326016 4.473168 2.597899 3.535534 3.535534 2.597899 4.473168 1.326016 5 0 5-1.326016 5-2.597899 4.473168-3.535534 3.535534-4.473168 2.597899-5 1.326016-5 0-5-1.326016-4.473168-2.597899-3.535534-3.535534-2.597899-4.473168-1.326016-5 0-5Z"/>
</g>
<g clip-path="url(#clip_25)">
<path transform="matrix(1,0,0,-1,478.1429,266.1875)" d="M0-5C1.326016-5 2.597899-4.473168 3.535534-3.535534 4.473168-2.597899 5-1.326016 5 0 5 1.326016 4.473168 2.597899 3.535534 3.535534 2.597899 4.473168 1.326016 5 0 5-1.326016 5-2.597899 4.473168-3.535534 3.535534-4.473168 2.597899-5 1.326016-5 0-5-1.326016-4.473168-2.597899-3.535534-3.535534-2.597899-4.473168-1.326016-5 0-5Z" fill="#92cd00"/>
<path transform="matrix(1,0,0,-1,478.1429,266.1875)" stroke-width="1" stroke-linecap="butt" stroke-linejoin="round" fill="none" stroke="#92cd00" d="M0-5C1.326016-5 2.597899-4.473168 3.535534-3.535534 4.473168-2.597899 5-1.326016 5 0 5 1.326016 4.473168 2.597899 3.535534 3.535534 2.597899 4.473168 1.326016 5 0 5-1.326016 5-2.597899 4.473168-3.535534 3.535534-4.473168 2.597899-5 1.326016-5 0-5-1.326016-4.473168-2.597899-3.535534-3.535534-2.597899-4.473168-1.326016-5 0-5Z"/>
</g>
<g clip-path="url(#clip_26)">
<path transform="matrix(1,0,0,-1,546.1009,309.8002)" d="M0-5C1.326016-5 2.597899-4.473168 3.535534-3.535534 4.473168-2.597899 5-1.326016 5 0 5 1.326016 4.473168 2.597899 3.535534 3.535534 2.597899 4.473168 1.326016 5 0 5-1.326016 5-2.597899 4.473168-3.535534 3.535534-4.473168 2.597899-5 1.326016-5 0-5-1.326016-4.473168-2.597899-3.535534-3.535534-2.597899-4.473168-1.326016-5 0-5Z" fill="#92cd00"/>
<path transform="matrix(1,0,0,-1,546.1009,309.8002)" stroke-width="1" stroke-linecap="butt" stroke-linejoin="round" fill="none" stroke="#92cd00" d="M0-5C1.326016-5 2.597899-4.473168 3.535534-3.535534 4.473168-2.597899 5-1.326016 5 0 5 1.326016 4.473168 2.597899 3.535534 3.535534 2.597899 4.473168 1.326016 5 0 5-1.326016 5-2.597899 4.473168-3.535534 3.535534-4.473168 2.597899-5 1.326016-5 0-5-1.326016-4.473168-2.597899-3.535534-3.535534-2.597899-4.473168-1.326016-5 0-5Z"/>
</g>
<g clip-path="url(#clip_27)">
<path transform="matrix(1,0,0,-1,614.05886,228.91849)" d="M0-5C1.326016-5 2.597899-4.473168 3.535534-3.535534 4.473168-2.597899 5-1.326016 5 0 5 1.326016 4.473168 2.597899 3.535534 3.535534 2.597899 4.473168 1.326016 5 0 5-1.326016 5-2.597899 4.473168-3.535534 3.535534-4.473168 2.597899-5 1.326016-5 0-5-1.326016-4.473168-2.597899-3.535534-3.535534-2.597899-4.473168-1.326016-5 0-5Z" fill="#92cd00"/>
<path transform="matrix(1,0,0,-1,614.05886,228.91849)" stroke-width="1" stroke-linecap="butt" stroke-linejoin="round" fill="none" stroke="#92cd00" d="M0-5C1.326016-5 2.597899-4.473168 3.535534-3.535534 4.473168-2.597899 5-1.326016 5 0 5 1.326016 4.473168 2.597899 3.535534 3.535534 2.597899 4.473168 1.326016 5 0 5-1.326016 5-2.597899 4.473168-3.535534 3.535534-4.473168 2.597899-5 1.326016-5 0-5-1.326016-4.473168-2.597899-3.535534-3.535534-2.597899-4.473168-1.326016-5 0-5Z"/>
</g>
<g clip-path="url(#clip_28)">
<path transform="matrix(1,0,0,-1,682.0168,286.8044)" d="M0-5C1.326016-5 2.597899-4.473168 3.535534-3.535534 4.473168-2.597899 5-1.326016 5 0 5 1.326016 4.473168 2.597899 3.535534 3.535534 2.597899 4.473168 1.326016 5 0 5-1.326016 5-2.597899 4.473168-3.535534 3.535534-4.473168 2.597899-5 1.326016-5 0-5-1.326016-4.473168-2.597899-3.535534-3.535534-2.597899-4.473168-1.326016-5 0-5Z" fill="#92cd00"/>
<path transform="matrix(1,0,0,-1,682.0168,286.8044)" stroke-width="1" stroke-linecap="butt" stroke-linejoin="round" fill="none" stroke="#92cd00" d="M0-5C1.326016-5 2.597899-4.473168 3.535534-3.535534 4.473168-2.597899 5-1.326016 5 0 5 1.326016 4.473168 2.597899 3.535534 3.535534 2.597899 4.473168 1.326016 5 0 5-1.326016 5-2.597899 4.473168-3.535534 3.535534-4.473168 2.597899-5 1.326016-5 0-5-1.326016-4.473168-2.597899-3.535534-3.535534-2.597899-4.473168-1.326016-5 0-5Z"/>
</g>
</g>
<g clip-path="url(#clip_29)">
<path transform="matrix(1,0,0,-1,0,720)" stroke-width="3" stroke-linecap="square" stroke-linejoin="round" fill="none" stroke="#a3d1f2" d="M138.35318 143.03546 206.31114 132.66452 274.2691 635.3999 342.22706 578.3069 410.185 570.3773 478.14295 533.90127 546.1009 499.0111 614.05886 491.87449 682.01687 461.7421"/>
<g clip-path="url(#clip_30)">
<path transform="matrix(1,0,0,-1,138.35318,576.96456)" d="M-5-5H5V5H-5Z" fill="#a3d1f2"/>
<path transform="matrix(1,0,0,-1,138.35318,576.96456)" stroke-width="1" stroke-linecap="butt" stroke-miterlimit="10" stroke-linejoin="miter" fill="none" stroke="#a3d1f2" d="M-5-5H5V5H-5Z"/>
</g>
<g clip-path="url(#clip_31)">
<path transform="matrix(1,0,0,-1,206.31113,587.33547)" d="M-5-5H5V5H-5Z" fill="#a3d1f2"/>
<path transform="matrix(1,0,0,-1,206.31113,587.33547)" stroke-width="1" stroke-linecap="butt" stroke-miterlimit="10" stroke-linejoin="miter" fill="none" stroke="#a3d1f2" d="M-5-5H5V5H-5Z"/>
</g>
<g clip-path="url(#clip_32)">
<path transform="matrix(1,0,0,-1,274.26908,84.6001)" d="M-5-5H5V5H-5Z" fill="#a3d1f2"/>
<path transform="matrix(1,0,0,-1,274.26908,84.6001)" stroke-width="1" stroke-linecap="butt" stroke-miterlimit="10" stroke-linejoin="miter" fill="none" stroke="#a3d1f2" d="M-5-5H5V5H-5Z"/>
</g>
<g clip-path="url(#clip_33)">
<path transform="matrix(1,0,0,-1,342.22703,141.69307)" d="M-5-5H5V5H-5Z" fill="#a3d1f2"/>
<path transform="matrix(1,0,0,-1,342.22703,141.69307)" stroke-width="1" stroke-linecap="butt" stroke-miterlimit="10" stroke-linejoin="miter" fill="none" stroke="#a3d1f2" d="M-5-5H5V5H-5Z"/>
</g>
<g clip-path="url(#clip_34)">
<path transform="matrix(1,0,0,-1,410.18498,149.62265)" d="M-5-5H5V5H-5Z" fill="#a3d1f2"/>
<path transform="matrix(1,0,0,-1,410.18498,149.62265)" stroke-width="1" stroke-linecap="butt" stroke-miterlimit="10" stroke-linejoin="miter" fill="none" stroke="#a3d1f2" d="M-5-5H5V5H-5Z"/>
</g>
<g clip-path="url(#clip_35)">
<path transform="matrix(1,0,0,-1,478.1429,186.09873)" d="M-5-5H5V5H-5Z" fill="#a3d1f2"/>
<path transform="matrix(1,0,0,-1,478.1429,186.09873)" stroke-width="1" stroke-linecap="butt" stroke-miterlimit="10" stroke-linejoin="miter" fill="none" stroke="#a3d1f2" d="M-5-5H5V5H-5Z"/>
</g>
<g clip-path="url(#clip_36)">
<path transform="matrix(1,0,0,-1,546.1009,220.98888)" d="M-5-5H5V5H-5Z" fill="#a3d1f2"/>
<path transform="matrix(1,0,0,-1,546.1009,220.98888)" stroke-width="1" stroke-linecap="butt" stroke-miterlimit="10" stroke-linejoin="miter" fill="none" stroke="#a3d1f2" d="M-5-5H5V5H-5Z"/>
</g>
<g clip-path="url(#clip_37)">
<path transform="matrix(1,0,0,-1,614.05886,228.1255)" d="M-5-5H5V5H-5Z" fill="#a3d1f2"/>
<path transform="matrix(1,0,0,-1,614.05886,228.1255)" stroke-width="1" stroke-linecap="butt" stroke-miterlimit="10" stroke-linejoin="miter" fill="none" stroke="#a3d1f2" d="M-5-5H5V5H-5Z"/>
</g>
<g clip-path="url(#clip_38)">
<path transform="matrix(1,0,0,-1,682.0168,258.2579)" d="M-5-5H5V5H-5Z" fill="#a3d1f2"/>
<path transform="matrix(1,0,0,-1,682.0168,258.2579)" stroke-width="1" stroke-linecap="butt" stroke-miterlimit="10" stroke-linejoin="miter" fill="none" stroke="#a3d1f2" d="M-5-5H5V5H-5Z"/>
</g>
</g>
<g clip-path="url(#clip_39)">
<path transform="matrix(1,0,0,-1,0,720)" stroke-width="3" stroke-linecap="square" stroke-linejoin="round" fill="none" stroke="#f4b6c2" d="M138.35318 143.03546 206.31114 128.69974 274.2691 594.1661 342.22706 511.69844 410.185 530.72946 478.14295 502.9759 546.1009 502.18296 614.05886 520.42098 682.01687 469.67167"/>
<g clip-path="url(#clip_40)">
<path transform="matrix(1,0,0,-1,138.35318,576.96456)" d="M0-7.071068 7.071068 0 0 7.071068-7.071068 0Z" fill="#f4b6c2"/>
<path transform="matrix(1,0,0,-1,138.35318,576.96456)" stroke-width="1" stroke-linecap="butt" stroke-miterlimit="10" stroke-linejoin="miter" fill="none" stroke="#f4b6c2" d="M0-7.071068 7.071068 0 0 7.071068-7.071068 0Z"/>
</g>
<g clip-path="url(#clip_41)">
<path transform="matrix(1,0,0,-1,206.31113,591.3003)" d="M0-7.071068 7.071068 0 0 7.071068-7.071068 0Z" fill="#f4b6c2"/>
<path transform="matrix(1,0,0,-1,206.31113,591.3003)" stroke-width="1" stroke-linecap="butt" stroke-miterlimit="10" stroke-linejoin="miter" fill="none" stroke="#f4b6c2" d="M0-7.071068 7.071068 0 0 7.071068-7.071068 0Z"/>
</g>
<g clip-path="url(#clip_42)">
<path transform="matrix(1,0,0,-1,274.26908,125.833957)" d="M0-7.071068 7.071068 0 0 7.071068-7.071068 0Z" fill="#f4b6c2"/>
<path transform="matrix(1,0,0,-1,274.26908,125.833957)" stroke-width="1" stroke-linecap="butt" stroke-miterlimit="10" stroke-linejoin="miter" fill="none" stroke="#f4b6c2" d="M0-7.071068 7.071068 0 0 7.071068-7.071068 0Z"/>
</g>
<g clip-path="url(#clip_43)">
<path transform="matrix(1,0,0,-1,342.22703,208.30158)" d="M0-7.071068 7.071068 0 0 7.071068-7.071068 0Z" fill="#f4b6c2"/>
<path transform="matrix(1,0,0,-1,342.22703,208.30158)" stroke-width="1" stroke-linecap="butt" stroke-miterlimit="10" stroke-linejoin="miter" fill="none" stroke="#f4b6c2" d="M0-7.071068 7.071068 0 0 7.071068-7.071068 0Z"/>
</g>
<g clip-path="url(#clip_44)">
<path transform="matrix(1,0,0,-1,410.18498,189.27059)" d="M0-7.071068 7.071068 0 0 7.071068-7.071068 0Z" fill="#f4b6c2"/>
<path transform="matrix(1,0,0,-1,410.18498,189.27059)" stroke-width="1" stroke-linecap="butt" stroke-miterlimit="10" stroke-linejoin="miter" fill="none" stroke="#f4b6c2" d="M0-7.071068 7.071068 0 0 7.071068-7.071068 0Z"/>
</g>
<g clip-path="url(#clip_45)">
<path transform="matrix(1,0,0,-1,478.1429,217.02411)" d="M0-7.071068 7.071068 0 0 7.071068-7.071068 0Z" fill="#f4b6c2"/>
<path transform="matrix(1,0,0,-1,478.1429,217.02411)" stroke-width="1" stroke-linecap="butt" stroke-miterlimit="10" stroke-linejoin="miter" fill="none" stroke="#f4b6c2" d="M0-7.071068 7.071068 0 0 7.071068-7.071068 0Z"/>
</g>
<g clip-path="url(#clip_46)">
<path transform="matrix(1,0,0,-1,546.1009,217.81707)" d="M0-7.071068 7.071068 0 0 7.071068-7.071068 0Z" fill="#f4b6c2"/>
<path transform="matrix(1,0,0,-1,546.1009,217.81707)" stroke-width="1" stroke-linecap="butt" stroke-miterlimit="10" stroke-linejoin="miter" fill="none" stroke="#f4b6c2" d="M0-7.071068 7.071068 0 0 7.071068-7.071068 0Z"/>
</g>
<g clip-path="url(#clip_47)">
<path transform="matrix(1,0,0,-1,614.05886,199.57903)" d="M0-7.071068 7.071068 0 0 7.071068-7.071068 0Z" fill="#f4b6c2"/>
<path transform="matrix(1,0,0,-1,614.05886,199.57903)" stroke-width="1" stroke-linecap="butt" stroke-miterlimit="10" stroke-linejoin="miter" fill="none" stroke="#f4b6c2" d="M0-7.071068 7.071068 0 0 7.071068-7.071068 0Z"/>
</g>
<g clip-path="url(#clip_48)">
<path transform="matrix(1,0,0,-1,682.0168,250.32834)" d="M0-7.071068 7.071068 0 0 7.071068-7.071068 0Z" fill="#f4b6c2"/>
<path transform="matrix(1,0,0,-1,682.0168,250.32834)" stroke-width="1" stroke-linecap="butt" stroke-miterlimit="10" stroke-linejoin="miter" fill="none" stroke="#f4b6c2" d="M0-7.071068 7.071068 0 0 7.071068-7.071068 0Z"/>
</g>
</g>
<g clip-path="url(#clip_49)">
<path transform="matrix(1,0,0,-1,0,720)" stroke-width="3" stroke-linecap="square" stroke-linejoin="round" fill="none" stroke="#fed1bd" d="M138.35318 143.03546 206.31114 163.58989 274.2691 625.09146 342.22706 590.2013 410.185 591.7872 478.14295 561.6548 546.1009 549.76046 614.05886 553.7252 682.01687 546.58859"/>
<g clip-path="url(#clip_50)">
<path transform="matrix(1,0,0,-1,138.35318,576.96456)" d="M0 5-5-5H5Z" fill="#fed1bd"/>
<path transform="matrix(1,0,0,-1,138.35318,576.96456)" stroke-width="1" stroke-linecap="butt" stroke-miterlimit="10" stroke-linejoin="miter" fill="none" stroke="#fed1bd" d="M0 5-5-5H5Z"/>
</g>
<g clip-path="url(#clip_51)">
<path transform="matrix(1,0,0,-1,206.31113,556.4101)" d="M0 5-5-5H5Z" fill="#fed1bd"/>
<path transform="matrix(1,0,0,-1,206.31113,556.4101)" stroke-width="1" stroke-linecap="butt" stroke-miterlimit="10" stroke-linejoin="miter" fill="none" stroke="#fed1bd" d="M0 5-5-5H5Z"/>
</g>
<g clip-path="url(#clip_52)">
<path transform="matrix(1,0,0,-1,274.26908,94.90854)" d="M0 5-5-5H5Z" fill="#fed1bd"/>
<path transform="matrix(1,0,0,-1,274.26908,94.90854)" stroke-width="1" stroke-linecap="butt" stroke-miterlimit="10" stroke-linejoin="miter" fill="none" stroke="#fed1bd" d="M0 5-5-5H5Z"/>
</g>
<g clip-path="url(#clip_53)">
<path transform="matrix(1,0,0,-1,342.22703,129.79869)" d="M0 5-5-5H5Z" fill="#fed1bd"/>
<path transform="matrix(1,0,0,-1,342.22703,129.79869)" stroke-width="1" stroke-linecap="butt" stroke-miterlimit="10" stroke-linejoin="miter" fill="none" stroke="#fed1bd" d="M0 5-5-5H5Z"/>
</g>
<g clip-path="url(#clip_54)">
<path transform="matrix(1,0,0,-1,410.18498,128.21277)" d="M0 5-5-5H5Z" fill="#fed1bd"/>
<path transform="matrix(1,0,0,-1,410.18498,128.21277)" stroke-width="1" stroke-linecap="butt" stroke-miterlimit="10" stroke-linejoin="miter" fill="none" stroke="#fed1bd" d="M0 5-5-5H5Z"/>
</g>
<g clip-path="url(#clip_55)">
<path transform="matrix(1,0,0,-1,478.1429,158.34517)" d="M0 5-5-5H5Z" fill="#fed1bd"/>
<path transform="matrix(1,0,0,-1,478.1429,158.34517)" stroke-width="1" stroke-linecap="butt" stroke-miterlimit="10" stroke-linejoin="miter" fill="none" stroke="#fed1bd" d="M0 5-5-5H5Z"/>
</g>
<g clip-path="url(#clip_56)">
<path transform="matrix(1,0,0,-1,546.1009,170.23954)" d="M0 5-5-5H5Z" fill="#fed1bd"/>
<path transform="matrix(1,0,0,-1,546.1009,170.23954)" stroke-width="1" stroke-linecap="butt" stroke-miterlimit="10" stroke-linejoin="miter" fill="none" stroke="#fed1bd" d="M0 5-5-5H5Z"/>
</g>
<g clip-path="url(#clip_57)">
<path transform="matrix(1,0,0,-1,614.05886,166.27475)" d="M0 5-5-5H5Z" fill="#fed1bd"/>
<path transform="matrix(1,0,0,-1,614.05886,166.27475)" stroke-width="1" stroke-linecap="butt" stroke-miterlimit="10" stroke-linejoin="miter" fill="none" stroke="#fed1bd" d="M0 5-5-5H5Z"/>
</g>
<g clip-path="url(#clip_58)">
<path transform="matrix(1,0,0,-1,682.0168,173.41138)" d="M0 5-5-5H5Z" fill="#fed1bd"/>
<path transform="matrix(1,0,0,-1,682.0168,173.41138)" stroke-width="1" stroke-linecap="butt" stroke-miterlimit="10" stroke-linejoin="miter" fill="none" stroke="#fed1bd" d="M0 5-5-5H5Z"/>
</g>
</g>
<g clip-path="url(#clip_59)">
<path transform="matrix(1,0,0,-1,0,720)" stroke-width="3" stroke-linecap="square" stroke-linejoin="round" fill="none" stroke="#957dad" d="M138.35318 143.03546 206.31114 135.0434 274.2691 633.81399 342.22706 627.4703 410.185 617.95486 478.14295 604.47457 546.1009 600.5097 614.05886 597.3379 682.01687 587.8224"/>
<g clip-path="url(#clip_60)">
<path transform="matrix(1,0,0,-1,138.35318,576.96456)" d="M-1.666667-5H1.666667V-1.666667H5V1.666667H1.666667V5H-1.666667V1.666667H-5V-1.666667H-1.666667Z" fill="#957dad"/>
<path transform="matrix(1,0,0,-1,138.35318,576.96456)" stroke-width="1" stroke-linecap="butt" stroke-miterlimit="10" stroke-linejoin="miter" fill="none" stroke="#957dad" d="M-1.666667-5H1.666667V-1.666667H5V1.666667H1.666667V5H-1.666667V1.666667H-5V-1.666667H-1.666667Z"/>
</g>
<g clip-path="url(#clip_61)">
<path transform="matrix(1,0,0,-1,206.31113,584.9566)" d="M-1.666667-5H1.666667V-1.666667H5V1.666667H1.666667V5H-1.666667V1.666667H-5V-1.666667H-1.666667Z" fill="#957dad"/>
<path transform="matrix(1,0,0,-1,206.31113,584.9566)" stroke-width="1" stroke-linecap="butt" stroke-miterlimit="10" stroke-linejoin="miter" fill="none" stroke="#957dad" d="M-1.666667-5H1.666667V-1.666667H5V1.666667H1.666667V5H-1.666667V1.666667H-5V-1.666667H-1.666667Z"/>
</g>
<g clip-path="url(#clip_62)">
<path transform="matrix(1,0,0,-1,274.26908,86.186038)" d="M-1.666667-5H1.666667V-1.666667H5V1.666667H1.666667V5H-1.666667V1.666667H-5V-1.666667H-1.666667Z" fill="#957dad"/>
<path transform="matrix(1,0,0,-1,274.26908,86.186038)" stroke-width="1" stroke-linecap="butt" stroke-miterlimit="10" stroke-linejoin="miter" fill="none" stroke="#957dad" d="M-1.666667-5H1.666667V-1.666667H5V1.666667H1.666667V5H-1.666667V1.666667H-5V-1.666667H-1.666667Z"/>
</g>
<g clip-path="url(#clip_63)">
<path transform="matrix(1,0,0,-1,342.22703,92.5297)" d="M-1.666667-5H1.666667V-1.666667H5V1.666667H1.666667V5H-1.666667V1.666667H-5V-1.666667H-1.666667Z" fill="#957dad"/>
<path transform="matrix(1,0,0,-1,342.22703,92.5297)" stroke-width="1" stroke-linecap="butt" stroke-miterlimit="10" stroke-linejoin="miter" fill="none" stroke="#957dad" d="M-1.666667-5H1.666667V-1.666667H5V1.666667H1.666667V5H-1.666667V1.666667H-5V-1.666667H-1.666667Z"/>
</g>
<g clip-path="url(#clip_64)">
<path transform="matrix(1,0,0,-1,410.18498,102.0452)" d="M-1.666667-5H1.666667V-1.666667H5V1.666667H1.666667V5H-1.666667V1.666667H-5V-1.666667H-1.666667Z" fill="#957dad"/>
<path transform="matrix(1,0,0,-1,410.18498,102.0452)" stroke-width="1" stroke-linecap="butt" stroke-miterlimit="10" stroke-linejoin="miter" fill="none" stroke="#957dad" d="M-1.666667-5H1.666667V-1.666667H5V1.666667H1.666667V5H-1.666667V1.666667H-5V-1.666667H-1.666667Z"/>
</g>
<g clip-path="url(#clip_65)">
<path transform="matrix(1,0,0,-1,478.1429,115.52548)" d="M-1.666667-5H1.666667V-1.666667H5V1.666667H1.666667V5H-1.666667V1.666667H-5V-1.666667H-1.666667Z" fill="#957dad"/>
<path transform="matrix(1,0,0,-1,478.1429,115.52548)" stroke-width="1" stroke-linecap="butt" stroke-miterlimit="10" stroke-linejoin="miter" fill="none" stroke="#957dad" d="M-1.666667-5H1.666667V-1.666667H5V1.666667H1.666667V5H-1.666667V1.666667H-5V-1.666667H-1.666667Z"/>
</g>
<g clip-path="url(#clip_66)">
<path transform="matrix(1,0,0,-1,546.1009,119.49027)" d="M-1.666667-5H1.666667V-1.666667H5V1.666667H1.666667V5H-1.666667V1.666667H-5V-1.666667H-1.666667Z" fill="#957dad"/>
<path transform="matrix(1,0,0,-1,546.1009,119.49027)" stroke-width="1" stroke-linecap="butt" stroke-miterlimit="10" stroke-linejoin="miter" fill="none" stroke="#957dad" d="M-1.666667-5H1.666667V-1.666667H5V1.666667H1.666667V5H-1.666667V1.666667H-5V-1.666667H-1.666667Z"/>
</g>
<g clip-path="url(#clip_67)">
<path transform="matrix(1,0,0,-1,614.05886,122.6621)" d="M-1.666667-5H1.666667V-1.666667H5V1.666667H1.666667V5H-1.666667V1.666667H-5V-1.666667H-1.666667Z" fill="#957dad"/>
<path transform="matrix(1,0,0,-1,614.05886,122.6621)" stroke-width="1" stroke-linecap="butt" stroke-miterlimit="10" stroke-linejoin="miter" fill="none" stroke="#957dad" d="M-1.666667-5H1.666667V-1.666667H5V1.666667H1.666667V5H-1.666667V1.666667H-5V-1.666667H-1.666667Z"/>
</g>
<g clip-path="url(#clip_68)">
<path transform="matrix(1,0,0,-1,682.0168,132.1776)" d="M-1.666667-5H1.666667V-1.666667H5V1.666667H1.666667V5H-1.666667V1.666667H-5V-1.666667H-1.666667Z" fill="#957dad"/>
<path transform="matrix(1,0,0,-1,682.0168,132.1776)" stroke-width="1" stroke-linecap="butt" stroke-miterlimit="10" stroke-linejoin="miter" fill="none" stroke="#957dad" d="M-1.666667-5H1.666667V-1.666667H5V1.666667H1.666667V5H-1.666667V1.666667H-5V-1.666667H-1.666667Z"/>
</g>
</g>
<path transform="matrix(1,0,0,-1,0,720)" stroke-width=".8" stroke-linecap="square" stroke-miterlimit="10" stroke-linejoin="miter" fill="none" stroke="#000000" d="M111.17 85.88V661.5675"/>
<path transform="matrix(1,0,0,-1,0,720)" stroke-width=".8" stroke-linecap="square" stroke-miterlimit="10" stroke-linejoin="miter" fill="none" stroke="#000000" d="M709.2 85.88V661.5675"/>
<path transform="matrix(1,0,0,-1,0,720)" stroke-width=".8" stroke-linecap="square" stroke-miterlimit="10" stroke-linejoin="miter" fill="none" stroke="#000000" d="M111.17 85.88H709.2"/>
<path transform="matrix(1,0,0,-1,0,720)" stroke-width=".8" stroke-linecap="square" stroke-miterlimit="10" stroke-linejoin="miter" fill="none" stroke="#000000" d="M111.17 661.5675H709.2"/>
<g clip-path="url(#clip_69)">
<path transform="matrix(1,0,0,-1,0,720)" d="M138.35318 157.1776 135.17807 147.40563H124.90321L133.21575 141.36621 130.04065 131.59424 138.35318 137.63365 146.66573 131.59424 143.49062 141.36621 151.80315 147.40563H141.52829Z" fill="#88d8c0"/>
<path transform="matrix(1,0,0,-1,0,720)" stroke-width="1" stroke-linecap="butt" stroke-linejoin="round" fill="none" stroke="#88d8c0" d="M138.35318 157.1776 135.17807 147.40563H124.90321L133.21575 141.36621 130.04065 131.59424 138.35318 137.63365 146.66573 131.59424 143.49062 141.36621 151.80315 147.40563H141.52829Z"/>
</g>
<use data-text="A" xlink:href="#font_2_65" transform="matrix(40,0,0,-40,142.185,49.15437)"/>
<use data-text="c" xlink:href="#font_2_99" transform="matrix(40,0,0,-40,171.07172,49.15437)"/>
<use data-text="c" xlink:href="#font_2_99" transform="matrix(40,0,0,-40,188.82563,49.15437)"/>
<use data-text="." xlink:href="#font_2_46" transform="matrix(40,0,0,-40,206.57953,49.15437)"/>
<use data-text=" " xlink:href="#font_2_32" transform="matrix(40,0,0,-40,216.57953,49.15437)"/>
<use data-text="o" xlink:href="#font_2_111" transform="matrix(40,0,0,-40,226.57953,49.15437)"/>
<use data-text="f" xlink:href="#font_2_102" transform="matrix(40,0,0,-40,246.57953,49.15437)"/>
<use data-text=" " xlink:href="#font_2_32" transform="matrix(40,0,0,-40,259.89985,49.15437)"/>
<use data-text="t" xlink:href="#font_2_116" transform="matrix(40,0,0,-40,269.89985,49.15437)"/>
<use data-text="h" xlink:href="#font_2_104" transform="matrix(40,0,0,-40,281.01313,49.15437)"/>
<use data-text="e" xlink:href="#font_2_101" transform="matrix(40,0,0,-40,301.01313,49.15437)"/>
<use data-text=" " xlink:href="#font_2_32" transform="matrix(40,0,0,-40,318.76704,49.15437)"/>
<use data-text="2" xlink:href="#font_2_50" transform="matrix(40,0,0,-40,328.76704,49.15437)"/>
<use data-text="n" xlink:href="#font_2_110" transform="matrix(40,0,0,-40,348.76704,49.15437)"/>
<use data-text="d" xlink:href="#font_2_100" transform="matrix(40,0,0,-40,368.76704,49.15437)"/>
<use data-text=" " xlink:href="#font_2_32" transform="matrix(40,0,0,-40,388.76704,49.15437)"/>
<use data-text="t" xlink:href="#font_2_116" transform="matrix(40,0,0,-40,398.76704,49.15437)"/>
<use data-text="a" xlink:href="#font_2_97" transform="matrix(40,0,0,-40,409.8803,49.15437)"/>
<use data-text="s" xlink:href="#font_2_115" transform="matrix(40,0,0,-40,427.63423,49.15437)"/>
<use data-text="k" xlink:href="#font_2_107" transform="matrix(40,0,0,-40,443.20063,49.15437)"/>
<use data-text=" " xlink:href="#font_2_32" transform="matrix(40,0,0,-40,463.20063,49.15437)"/>
<use data-text="i" xlink:href="#font_2_105" transform="matrix(40,0,0,-40,473.20063,49.15437)"/>
<use data-text="n" xlink:href="#font_2_110" transform="matrix(40,0,0,-40,484.3139,49.15437)"/>
<use data-text=" " xlink:href="#font_2_32" transform="matrix(40,0,0,-40,504.3139,49.15437)"/>
<use data-text="1" xlink:href="#font_70_49" transform="matrix(28,0,0,-28,540.0567,33.84187)"/>
<use data-text=" " xlink:href="#font_2_32" transform="matrix(40,0,0,-40,558.9649,49.15437)"/>
<use data-text="(" xlink:href="#font_2_40" transform="matrix(40,0,0,-40,568.9649,49.15437)"/>
<use data-text="D" xlink:href="#font_2_68" transform="matrix(40,0,0,-40,582.2852,49.15437)"/>
<use data-text="T" xlink:href="#font_2_84" transform="matrix(40,0,0,-40,611.17196,49.15437)"/>
<use data-text="D" xlink:href="#font_2_68" transform="matrix(40,0,0,-40,635.6055,49.15437)"/>
<use data-text=")" xlink:href="#font_2_41" transform="matrix(40,0,0,-40,664.49227,49.15437)"/>
<g clip-path="url(#clip_71)">
<path transform="matrix(.04,0,0,-.04,514.3139,49.15437)" d="M38 193 64 196C75 126 113 79 178 57 207 46 240 41 276 41 332 41 379 54 419 80 459 106 479 144 479 193 479 213 469 230 450 245 431 260 408 273 382 284 355 294 328 306 301 319 274 332 251 351 232 375 213 399 204 429 204 464 204 497 214 527 235 555 256 583 282 605 312 621 342 637 372 649 402 658 431 666 456 671 478 671 534 671 581 662 617 646 653 629 671 603 671 569 671 550 665 532 653 515 641 498 624 490 602 490 587 490 574 495 563 505 551 515 546 526 546 540 546 555 551 568 561 579 571 590 576 597 576 600 576 608 573 614 567 619 561 624 552 628 540 630 528 632 518 633 510 633 502 633 491 634 478 634 464 634 448 631 429 626 409 621 389 614 367 604 345 594 327 579 312 559 297 539 290 517 290 493 290 469 300 449 321 433 342 416 368 402 398 391 428 379 459 367 489 354 519 341 545 323 566 300 587 276 598 248 598 215 598 165 565 117 501 70 436 23 363 0 282 0 197 0 135 17 96 53 57 88 38 135 38 193Z"/>
</g>
</svg>
