<svg xmlns="http://www.w3.org/2000/svg" xmlns:xlink="http://www.w3.org/1999/xlink" version="1.1" width="720" height="720" viewBox="0 0 720 720">
<defs>
<clipPath id="clip_1">
<path transform="matrix(1,0,0,-1,0,720)" d="M111.17 85.88H709.2V661.5675H111.17Z"/>
</clipPath>
<g id="font_2_48">
<path transform="matrix(.001,0,0,.001,0,0)" d="M36 327C36 402 47 467 70 522 92 576 123 617 161 644 190 665 220 676 252 676 302 676 348 650 389 598 439 534 464 447 464 337 464 260 453 195 431 141 409 87 380 49 346 25 312 1 279-11 247-11 183-11 131 26 89 100 53 162 36 238 36 327ZM132 315C132 223 143 149 166 92 184 43 211 19 249 19 266 19 284 26 303 42 322 58 336 84 346 122 361 178 369 257 369 359 369 434 361 497 345 548 333 585 318 611 300 627 286 638 270 644 251 644 229 644 209 634 192 614 168 586 152 544 144 486 136 428 132 371 132 315Z"/>
</g>
<clipPath id="clip_3">
<path transform="matrix(1,0,0,-1,0,720)" d="M111.17 85.88H709.2V661.5675H111.17Z"/>
</clipPath>
<g id="font_2_49">
<path transform="matrix(.001,0,0,.001,0,0)" d="M117 597 278 676H294V117C294 79 295 56 299 47 302 38 308 31 318 26 328 21 348 18 378 18V0H129V18C160 18 180 21 189 26 198 30 204 37 208 45 212 53 214 77 214 117V474C214 522 212 553 209 567 207 577 203 585 197 590 191 594 183 597 175 597 163 597 146 592 125 582L117 597Z"/>
</g>
<clipPath id="clip_4">
<path transform="matrix(1,0,0,-1,0,720)" d="M111.17 85.88H709.2V661.5675H111.17Z"/>
</clipPath>
<g id="font_2_50">
<path transform="matrix(.001,0,0,.001,0,0)" d="M458 127 412 0H21V18C136 122 217 208 264 275 310 341 334 402 334 457 334 499 321 533 295 560 269 587 239 601 204 601 171 601 142 591 116 572 90 553 71 525 59 489H41C49 549 69 595 103 627 137 659 179 676 229 676 283 676 328 658 364 624 400 589 418 548 418 502 418 468 410 435 395 401 370 348 331 292 277 234 196 145 145 92 125 74H298C333 74 358 75 372 78 386 80 399 85 411 93 422 101 432 112 440 127H458Z"/>
</g>
<clipPath id="clip_5">
<path transform="matrix(1,0,0,-1,0,720)" d="M111.17 85.88H709.2V661.5675H111.17Z"/>
</clipPath>
<g id="font_2_51">
<path transform="matrix(.001,0,0,.001,0,0)" d="M51 536C69 580 93 615 122 639 151 663 187 676 230 676 283 676 324 658 352 624 373 598 384 570 384 542 384 493 353 443 293 392 333 376 364 353 385 323 406 293 417 259 417 219 417 161 398 112 362 70 314 16 246-11 156-11 111-11 81-5 65 5 49 15 41 27 41 41 41 50 44 58 52 65 59 72 68 76 80 76 88 76 96 74 104 72 110 70 122 64 142 54 161 44 175 38 183 36 195 32 207 31 221 31 254 31 283 43 308 69 332 95 345 125 345 161 345 186 339 211 328 236 319 254 310 267 300 277 286 290 266 302 242 313 218 323 193 329 167 329H152V343C177 346 203 355 229 371 255 386 273 404 285 426 297 447 303 471 303 497 303 530 292 557 271 578 250 598 224 609 193 609 143 609 101 582 67 528L51 536Z"/>
</g>
<clipPath id="clip_6">
<path transform="matrix(1,0,0,-1,0,720)" d="M111.17 85.88H709.2V661.5675H111.17Z"/>
</clipPath>
<g id="font_2_52">
<path transform="matrix(.001,0,0,.001,0,0)" d="M465 244V175H376V0H296V175H16V237L323 676H376V244H465ZM296 244V573L63 244H296Z"/>
</g>
<clipPath id="clip_7">
<path transform="matrix(1,0,0,-1,0,720)" d="M111.17 85.88H709.2V661.5675H111.17Z"/>
</clipPath>
<g id="font_2_53">
<path transform="matrix(.001,0,0,.001,0,0)" d="M434 662 396 579H197L153 490C239 477 308 445 358 394 401 350 423 298 423 238 423 203 416 171 402 141 388 111 370 86 348 65 326 44 303 27 277 15 239-2 201-11 162-11 122-11 93-4 75 9 57 22 48 37 48 53 48 62 51 70 59 77 66 84 75 88 87 88 95 88 103 86 109 84 115 81 126 74 142 64 166 47 191 39 216 39 254 39 287 53 316 82 345 110 360 145 360 187 360 227 347 264 321 299 295 333 260 360 215 379 179 393 131 402 70 405L197 662H434Z"/>
</g>
<clipPath id="clip_8">
<path transform="matrix(1,0,0,-1,0,720)" d="M111.17 85.88H709.2V661.5675H111.17Z"/>
</clipPath>
<g id="font_2_54">
<path transform="matrix(.001,0,0,.001,0,0)" d="M448 676V658C405 653 370 644 343 632 315 619 288 599 262 573 236 547 214 517 196 485 178 453 164 414 153 370 199 402 246 418 294 418 339 418 378 399 411 363 444 327 461 280 461 223 461 167 444 117 411 71 371 16 317-11 251-11 205-11 167 3 136 33 74 91 43 167 43 260 43 319 54 375 78 429 102 482 136 529 180 571 224 612 267 640 307 654 347 668 385 676 420 676H448ZM145 334C139 290 136 254 136 228 136 196 141 162 153 126 164 89 181 60 205 39 221 23 241 16 265 16 293 16 319 29 341 56 363 82 375 120 375 170 375 225 363 273 341 314 319 354 287 375 247 375 235 375 221 372 207 367 193 362 172 351 145 334Z"/>
</g>
<clipPath id="clip_9">
<path transform="matrix(1,0,0,-1,0,720)" d="M111.17 85.88H709.2V661.5675H111.17Z"/>
</clipPath>
<g id="font_2_55">
<path transform="matrix(.001,0,0,.001,0,0)" d="M101 662H456V644L235-13H180L378 583H196C159 583 133 578 117 569 89 554 67 531 51 500L37 505 101 662Z"/>
</g>
<clipPath id="clip_10">
<path transform="matrix(1,0,0,-1,0,720)" d="M111.17 85.88H709.2V661.5675H111.17Z"/>
</clipPath>
<g id="font_2_56">
<path transform="matrix(.001,0,0,.001,0,0)" d="M192 333C139 376 105 411 90 437 75 463 68 490 68 518 68 561 84 598 117 629 150 660 194 676 250 676 303 676 346 661 379 632 411 603 428 570 428 533 428 508 419 483 401 457 383 431 347 401 292 367 348 322 386 287 405 262 429 228 442 193 442 157 442 110 424 70 389 38 353 5 307-11 250-11 186-11 137 8 103 47 75 79 61 113 61 151 61 180 70 209 90 238 110 266 144 298 192 333ZM269 386C307 420 332 448 342 469 352 489 358 512 358 538 358 572 348 598 329 618 310 637 284 647 251 647 217 647 190 637 170 618 149 599 139 577 139 551 139 534 143 517 152 500 160 483 172 467 188 452L269 386ZM215 315C187 292 167 267 154 240 141 213 135 184 135 153 135 111 146 77 169 52 192 27 221 15 257 15 292 15 320 24 342 44 363 64 374 88 374 117 374 140 367 161 355 180 331 214 285 259 215 315Z"/>
</g>
<g id="font_2_84">
<path transform="matrix(.001,0,0,.001,0,0)" d="M579 662 586 507H567C563 534 559 553 553 565 543 584 529 598 512 607 495 616 473 621 446 621H353V115C353 74 357 49 366 39 378 25 397 18 423 18H446V0H166V18H189C217 18 237 26 249 43 255 53 259 77 259 115V621H180C148 621 126 618 114 614 96 607 82 595 70 578 58 560 51 537 49 507H30L38 662H579Z"/>
</g>
<g id="font_2_97">
<path transform="matrix(.001,0,0,.001,0,0)" d="M285 64C239 28 210 8 198 3 180-4 162-8 142-8 111-8 86 2 66 23 46 43 36 71 36 106 36 128 40 147 50 163 63 185 86 205 119 225 152 244 207 268 285 296V314C285 358 277 389 263 406 249 422 228 431 202 431 181 431 165 425 153 414 140 402 134 390 134 376L135 348C135 332 131 321 123 313 115 305 106 301 94 301 82 301 72 305 64 313 56 321 53 333 53 348 53 376 67 401 96 425 124 448 164 460 216 460 256 460 288 453 314 440 333 430 347 414 356 393 362 379 365 350 365 307V155C365 112 365 86 367 77 369 67 371 61 375 58 379 54 383 53 388 53 393 53 398 54 402 56 409 60 422 72 442 92V64C405 16 370-8 337-8 321-8 308-2 299 8 289 18 285 37 285 64ZM285 96V267C235 247 203 233 189 225 163 211 145 196 134 180 123 164 118 147 118 129 118 105 125 86 139 70 153 54 169 47 187 47 211 47 244 63 285 96Z"/>
</g>
<g id="font_2_115">
<path transform="matrix(.001,0,0,.001,0,0)" d="M320 460V308H304C292 356 276 388 257 406 237 423 213 432 183 432 159 432 141 426 127 414 113 402 106 388 106 374 106 355 111 339 122 327 132 313 152 299 184 284L255 250C321 217 354 174 354 122 354 81 338 48 308 24 277 0 243-13 205-13 177-13 146-8 111 1 100 4 91 6 84 6 76 6 71 2 67-6H51V153H67C76 107 93 72 119 49 145 26 174 15 206 15 228 15 246 21 260 35 274 48 282 64 282 83 282 105 274 123 258 139 242 154 210 173 163 197 116 220 85 241 71 261 56 279 49 303 49 331 49 367 61 398 87 423 112 447 145 460 185 460 202 460 223 456 249 449 265 444 276 442 282 442 287 442 291 443 294 445 296 447 300 452 304 460H320Z"/>
</g>
<g id="font_2_107">
<path transform="matrix(.001,0,0,.001,0,0)" d="M164 694V249L277 353C301 375 315 389 319 395 321 399 323 403 323 407 323 413 320 419 315 424 309 428 301 431 289 432V447H483V432C456 431 434 427 416 419 398 411 379 398 358 379L243 273 358 128C390 88 411 62 422 52 438 36 451 26 463 22 471 19 486 18 506 18V0H289V18C301 18 309 19 313 23 317 26 320 31 320 38 320 45 313 57 301 74L164 249V101C164 71 166 52 170 43 174 34 179 28 187 24 194 20 210 18 236 18V0H8V18C30 18 48 20 60 26 66 29 71 34 75 42 80 53 83 72 83 98V505C83 557 81 588 79 600 77 612 73 620 68 624 62 628 55 631 47 631 40 631 30 628 17 623L8 640 141 694H164Z"/>
</g>
<g id="font_2_32">
</g>
<g id="font_2_101">
<path transform="matrix(.001,0,0,.001,0,0)" d="M106 279C106 212 122 160 155 122 187 84 226 66 270 66 298 66 323 74 345 90 367 106 385 133 400 173L416 163C408 118 388 77 356 41 323 5 282-13 232-13 178-13 132 7 94 49 56 91 37 147 37 218 37 294 56 354 96 397 135 439 184 461 244 461 294 461 335 444 367 411 399 378 416 334 416 279H106ZM106 307H313C311 335 308 356 303 368 295 386 283 400 267 410 251 420 234 426 216 426 189 426 165 415 144 394 122 373 110 344 106 307Z"/>
</g>
<g id="font_2_113">
<path transform="matrix(.001,0,0,.001,0,0)" d="M427 460V-114C427-142 429-161 433-169 437-177 443-183 451-188 459-192 476-195 500-195V-213H274V-195H284C302-195 315-192 325-187 331-183 337-177 341-168 345-158 347-140 347-114V78C317 42 291 18 269 6 247-6 224-13 200-13 156-13 118 6 84 45 50 84 33 137 33 204 33 279 55 340 100 388 145 436 199 460 263 460 281 460 298 457 314 452 330 447 344 439 356 429 375 438 393 448 411 460H427ZM347 108V318C347 342 343 362 337 376 331 390 319 401 303 411 287 421 268 426 248 426 211 426 180 410 154 379 128 348 115 301 115 239 115 179 128 133 155 102 181 70 213 55 251 55 270 55 287 59 302 67 317 75 332 89 347 108Z"/>
</g>
<g id="font_2_117">
<path transform="matrix(.001,0,0,.001,0,0)" d="M423 447V176C423 124 424 93 427 81 429 69 433 61 439 57 444 52 450 50 458 50 468 50 479 53 492 59L499 42 365-13H343V81C304 39 275 13 255 3 235-7 213-13 191-13 165-13 143-6 125 8 107 22 94 41 87 64 80 86 77 119 77 161V360C77 381 74 396 70 404 65 412 58 419 49 423 40 427 24 429 1 429V447H158V148C158 106 165 78 179 65 193 52 211 46 232 46 246 46 261 50 279 59 297 68 318 85 343 110V363C343 388 338 405 329 414 319 423 300 428 271 429V447H423Z"/>
</g>
<g id="font_2_110">
<path transform="matrix(.001,0,0,.001,0,0)" d="M162 366C214 428 264 460 312 460 336 460 356 454 374 442 392 430 406 410 417 382 423 362 427 332 427 292V101C427 73 429 53 434 43 437 35 443 28 451 24 459 20 474 18 496 18V0H274V18H284C304 18 319 21 327 27 335 33 341 43 345 55 346 60 347 75 347 101V284C347 324 341 354 331 372 320 390 302 400 277 400 238 400 200 379 162 337V101C162 71 163 52 167 45 171 35 178 28 186 24 194 20 210 18 234 18V0H13V18H23C45 18 61 23 69 35 77 46 81 68 81 101V267C81 321 79 353 77 365 75 377 71 385 66 389 61 393 54 396 46 396 36 396 25 393 13 388L6 406 141 460H162V366Z"/>
</g>
<g id="font_2_99">
<path transform="matrix(.001,0,0,.001,0,0)" d="M411 170C399 111 375 66 340 34 305 2 266-13 224-13 172-13 128 8 90 50 52 92 34 150 34 223 34 293 55 350 97 394 139 438 189 460 248 460 291 460 327 448 355 425 383 402 398 378 398 353 398 340 394 330 386 323 378 315 367 312 353 312 333 312 319 318 310 330 304 336 300 349 298 369 296 388 290 403 279 413 267 423 251 428 231 428 199 428 173 416 153 392 126 360 113 317 113 265 113 211 126 164 152 124 178 83 214 63 259 63 291 63 319 73 345 95 363 110 380 137 397 177L411 170Z"/>
</g>
<clipPath id="clip_11">
<path transform="matrix(1,0,0,-1,0,720)" d="M111.17 85.88H709.2V661.5675H111.17Z"/>
</clipPath>
<g id="font_2_46">
<path transform="matrix(.001,0,0,.001,0,0)" d="M125 95C140 95 153 89 163 79 173 68 179 55 179 40 179 25 173 12 163 2 152-8 139-13 125-13 110-13 97-8 87 2 76 12 71 25 71 40 71 55 76 68 87 79 97 89 110 95 125 95Z"/>
</g>
<clipPath id="clip_12">
<path transform="matrix(1,0,0,-1,0,720)" d="M111.17 85.88H709.2V661.5675H111.17Z"/>
</clipPath>
<clipPath id="clip_13">
<path transform="matrix(1,0,0,-1,0,720)" d="M111.17 85.88H709.2V661.5675H111.17Z"/>
</clipPath>
<clipPath id="clip_14">
<path transform="matrix(1,0,0,-1,0,720)" d="M111.17 85.88H709.2V661.5675H111.17Z"/>
</clipPath>
<clipPath id="clip_15">
<path transform="matrix(1,0,0,-1,0,720)" d="M111.17 85.88H709.2V661.5675H111.17Z"/>
</clipPath>
<clipPath id="clip_16">
<path transform="matrix(1,0,0,-1,0,720)" d="M111.17 85.88H709.2V661.5675H111.17Z"/>
</clipPath>
<clipPath id="clip_17">
<path transform="matrix(1,0,0,-1,0,720)" d="M111.17 85.88H709.2V661.5675H111.17Z"/>
</clipPath>
<clipPath id="clip_18">
<path transform="matrix(1,0,0,-1,0,720)" d="M111.17 85.88H709.2V661.5675H111.17Z"/>
</clipPath>
<g id="font_2_65">
<path transform="matrix(.001,0,0,.001,0,0)" d="M458 222H201L156 117C145 91 140 72 140 60 140 49 144 40 154 32 163 24 184 20 216 18V0H8V18C35 22 53 29 62 37 78 53 96 84 117 132L350 677H367L597 126C615 82 632 53 647 40 662 27 683 20 711 18V0H450V18C476 19 493 23 503 31 512 38 517 47 517 59 517 73 510 95 498 126L458 222ZM444 258 332 525 216 258H444Z"/>
</g>
<g id="font_2_114">
<path transform="matrix(.001,0,0,.001,0,0)" d="M162 460V360C199 426 237 460 277 460 295 460 309 454 321 444 333 433 339 420 339 406 339 393 334 382 326 374 318 365 308 361 296 361 284 361 272 366 258 378 244 389 233 395 227 395 221 395 214 391 208 385 193 371 178 349 162 319V104C162 79 165 60 171 48 175 39 183 32 194 26 204 20 220 18 240 18V0H11V18C33 18 50 21 62 28 70 33 75 41 79 53 81 59 82 75 82 101V274C82 326 80 357 78 367 76 377 72 384 66 389 60 393 53 396 45 396 35 396 23 393 11 388L6 406 142 460H162Z"/>
</g>
<g id="font_2_121">
<path transform="matrix(.001,0,0,.001,0,0)" d="M6 447H214V429H204C189 429 178 425 171 419 163 413 160 405 160 396 160 383 165 365 176 343L285 118 385 365C391 378 394 391 394 404 394 410 392 414 390 417 387 421 383 424 378 426 372 428 363 429 349 429V447H494V429C482 427 472 425 466 421 460 417 453 410 445 399 441 395 436 382 428 362L246-83C228-126 205-159 177-181 148-203 121-215 95-215 75-215 59-209 47-198 35-187 29-174 29-160 29-146 33-135 42-127 51-119 63-115 79-115 89-115 104-118 123-125 136-130 144-133 147-133 157-133 167-128 179-118 191-108 202-88 214-59L246 18 85 355C80 365 72 377 62 393 54 404 47 412 42 416 34 420 22 425 6 429V447Z"/>
</g>
<clipPath id="clip_19">
<path transform="matrix(1,0,0,-1,0,720)" d="M111.17 85.88H709.2V661.5675H111.17Z"/>
</clipPath>
<clipPath id="clip_20">
<path transform="matrix(1,0,0,-1,138.35318,517.2095)" d="M-10-10H10V10H-10Z"/>
</clipPath>
<clipPath id="clip_21">
<path transform="matrix(1,0,0,-1,206.31113,88.00958)" d="M-10-10H10V10H-10Z"/>
</clipPath>
<clipPath id="clip_22">
<path transform="matrix(1,0,0,-1,274.26908,223.10948)" d="M-10-10H10V10H-10Z"/>
</clipPath>
<clipPath id="clip_23">
<path transform="matrix(1,0,0,-1,342.22703,536.3537)" d="M-10-10H10V10H-10Z"/>
</clipPath>
<clipPath id="clip_24">
<path transform="matrix(1,0,0,-1,410.18498,468.1645)" d="M-10-10H10V10H-10Z"/>
</clipPath>
<clipPath id="clip_25">
<path transform="matrix(1,0,0,-1,478.1429,548.713)" d="M-10-10H10V10H-10Z"/>
</clipPath>
<clipPath id="clip_26">
<path transform="matrix(1,0,0,-1,546.1009,534.649)" d="M-10-10H10V10H-10Z"/>
</clipPath>
<clipPath id="clip_27">
<path transform="matrix(1,0,0,-1,614.05886,550.4177)" d="M-10-10H10V10H-10Z"/>
</clipPath>
<clipPath id="clip_28">
<path transform="matrix(1,0,0,-1,682.0168,518.8802)" d="M-10-10H10V10H-10Z"/>
</clipPath>
<clipPath id="clip_29">
<path transform="matrix(1,0,0,-1,0,720)" d="M111.17 85.88H709.2V661.5675H111.17Z"/>
</clipPath>
<clipPath id="clip_30">
<path transform="matrix(1,0,0,-1,138.35318,517.2095)" d="M-10-10H10V10H-10Z"/>
</clipPath>
<clipPath id="clip_31">
<path transform="matrix(1,0,0,-1,206.31113,84.60013)" d="M-10-10H10V10H-10Z"/>
</clipPath>
<clipPath id="clip_32">
<path transform="matrix(1,0,0,-1,274.26908,267.0063)" d="M-10-10H10V10H-10Z"/>
</clipPath>
<clipPath id="clip_33">
<path transform="matrix(1,0,0,-1,342.22703,385.48506)" d="M-10-10H10V10H-10Z"/>
</clipPath>
<clipPath id="clip_34">
<path transform="matrix(1,0,0,-1,410.18498,397.84434)" d="M-10-10H10V10H-10Z"/>
</clipPath>
<clipPath id="clip_35">
<path transform="matrix(1,0,0,-1,478.1429,467.73829)" d="M-10-10H10V10H-10Z"/>
</clipPath>
<clipPath id="clip_36">
<path transform="matrix(1,0,0,-1,546.1009,489.04743)" d="M-10-10H10V10H-10Z"/>
</clipPath>
<clipPath id="clip_37">
<path transform="matrix(1,0,0,-1,614.05886,555.9581)" d="M-10-10H10V10H-10Z"/>
</clipPath>
<clipPath id="clip_38">
<path transform="matrix(1,0,0,-1,682.0168,607.9524)" d="M-10-10H10V10H-10Z"/>
</clipPath>
<clipPath id="clip_39">
<path transform="matrix(1,0,0,-1,0,720)" d="M111.17 85.88H709.2V661.5675H111.17Z"/>
</clipPath>
<clipPath id="clip_40">
<path transform="matrix(1,0,0,-1,138.35318,517.2095)" d="M-12.071068-12.071068H12.071068V12.071068H-12.071068Z"/>
</clipPath>
<clipPath id="clip_41">
<path transform="matrix(1,0,0,-1,206.31113,88.86197)" d="M-12.071068-12.071068H12.071068V12.071068H-12.071068Z"/>
</clipPath>
<clipPath id="clip_42">
<path transform="matrix(1,0,0,-1,274.26908,128.07077)" d="M-12.071068-12.071068H12.071068V12.071068H-12.071068Z"/>
</clipPath>
<clipPath id="clip_43">
<path transform="matrix(1,0,0,-1,342.22703,282.34889)" d="M-12.071068-12.071068H12.071068V12.071068H-12.071068Z"/>
</clipPath>
<clipPath id="clip_44">
<path transform="matrix(1,0,0,-1,410.18498,342.4406)" d="M-12.071068-12.071068H12.071068V12.071068H-12.071068Z"/>
</clipPath>
<clipPath id="clip_45">
<path transform="matrix(1,0,0,-1,478.1429,356.07847)" d="M-12.071068-12.071068H12.071068V12.071068H-12.071068Z"/>
</clipPath>
<clipPath id="clip_46">
<path transform="matrix(1,0,0,-1,546.1009,347.5548)" d="M-12.071068-12.071068H12.071068V12.071068H-12.071068Z"/>
</clipPath>
<clipPath id="clip_47">
<path transform="matrix(1,0,0,-1,614.05886,452.39576)" d="M-12.071068-12.071068H12.071068V12.071068H-12.071068Z"/>
</clipPath>
<clipPath id="clip_48">
<path transform="matrix(1,0,0,-1,682.0168,440.03648)" d="M-12.071068-12.071068H12.071068V12.071068H-12.071068Z"/>
</clipPath>
<clipPath id="clip_49">
<path transform="matrix(1,0,0,-1,0,720)" d="M111.17 85.88H709.2V661.5675H111.17Z"/>
</clipPath>
<clipPath id="clip_50">
<path transform="matrix(1,0,0,-1,138.35318,517.2095)" d="M-10-10H10V10H-10Z"/>
</clipPath>
<clipPath id="clip_51">
<path transform="matrix(1,0,0,-1,206.31113,100.795078)" d="M-10-10H10V10H-10Z"/>
</clipPath>
<clipPath id="clip_52">
<path transform="matrix(1,0,0,-1,274.26908,146.8228)" d="M-10-10H10V10H-10Z"/>
</clipPath>
<clipPath id="clip_53">
<path transform="matrix(1,0,0,-1,342.22703,231.20697)" d="M-10-10H10V10H-10Z"/>
</clipPath>
<clipPath id="clip_54">
<path transform="matrix(1,0,0,-1,410.18498,295.13438)" d="M-10-10H10V10H-10Z"/>
</clipPath>
<clipPath id="clip_55">
<path transform="matrix(1,0,0,-1,478.1429,332.21226)" d="M-10-10H10V10H-10Z"/>
</clipPath>
<clipPath id="clip_56">
<path transform="matrix(1,0,0,-1,546.1009,356.50468)" d="M-10-10H10V10H-10Z"/>
</clipPath>
<clipPath id="clip_57">
<path transform="matrix(1,0,0,-1,614.05886,389.32075)" d="M-10-10H10V10H-10Z"/>
</clipPath>
<clipPath id="clip_58">
<path transform="matrix(1,0,0,-1,682.0168,370.14253)" d="M-10-10H10V10H-10Z"/>
</clipPath>
<clipPath id="clip_59">
<path transform="matrix(1,0,0,-1,0,720)" d="M111.17 85.88H709.2V661.5675H111.17Z"/>
</clipPath>
<clipPath id="clip_60">
<path transform="matrix(1,0,0,-1,138.35318,517.2095)" d="M-10-10H10V10H-10Z"/>
</clipPath>
<clipPath id="clip_61">
<path transform="matrix(1,0,0,-1,206.31113,116.56384)" d="M-10-10H10V10H-10Z"/>
</clipPath>
<clipPath id="clip_62">
<path transform="matrix(1,0,0,-1,274.26908,116.56384)" d="M-10-10H10V10H-10Z"/>
</clipPath>
<clipPath id="clip_63">
<path transform="matrix(1,0,0,-1,342.22703,119.54712)" d="M-10-10H10V10H-10Z"/>
</clipPath>
<clipPath id="clip_64">
<path transform="matrix(1,0,0,-1,410.18498,113.58056)" d="M-10-10H10V10H-10Z"/>
</clipPath>
<clipPath id="clip_65">
<path transform="matrix(1,0,0,-1,478.1429,128.92313)" d="M-10-10H10V10H-10Z"/>
</clipPath>
<clipPath id="clip_66">
<path transform="matrix(1,0,0,-1,546.1009,132.75878)" d="M-10-10H10V10H-10Z"/>
</clipPath>
<clipPath id="clip_67">
<path transform="matrix(1,0,0,-1,614.05886,183.9007)" d="M-10-10H10V10H-10Z"/>
</clipPath>
<clipPath id="clip_68">
<path transform="matrix(1,0,0,-1,682.0168,197.53855)" d="M-10-10H10V10H-10Z"/>
</clipPath>
<clipPath id="clip_69">
<path transform="matrix(1,0,0,-1,0,720)" d="M111.17 85.88H709.2V661.5675H111.17Z"/>
</clipPath>
<g id="font_2_111">
<path transform="matrix(.001,0,0,.001,0,0)" d="M250 460C318 460 372 434 413 383 447 339 465 288 465 232 465 192 455 151 436 110 417 69 391 38 357 18 323-2 286-13 245-13 177-13 124 13 84 67 50 112 34 163 34 219 34 260 44 301 64 341 84 381 111 411 144 431 177 450 212 460 250 460ZM235 429C217 429 200 423 183 413 165 403 151 385 141 359 130 333 125 300 125 260 125 195 137 139 163 92 189 44 223 21 266 21 297 21 323 34 344 60 364 86 375 130 375 194 375 273 357 336 323 382 300 413 271 429 235 429Z"/>
</g>
<g id="font_2_102">
<path transform="matrix(.001,0,0,.001,0,0)" d="M206 412V118C206 76 210 50 220 39 232 25 248 18 268 18H309V0H42V18H62C74 18 86 21 97 27 107 33 115 42 119 53 123 64 125 86 125 118V412H39V447H125V477C125 521 132 558 146 589 160 620 182 645 212 664 242 683 275 693 312 693 346 693 377 682 406 660 425 645 435 629 435 611 435 601 430 591 422 583 413 574 404 570 395 570 387 570 378 572 370 578 362 583 352 595 340 613 328 631 317 643 307 649 297 655 285 658 273 658 258 658 245 654 235 646 225 638 217 625 213 609 208 592 206 549 206 479V447H321V412H206Z"/>
</g>
<g id="font_2_116">
<path transform="matrix(.001,0,0,.001,0,0)" d="M161 594V447H266V413H161V123C161 94 165 74 173 64 181 54 192 49 206 49 216 49 227 52 237 59 247 65 254 75 260 89H279C267 57 251 33 231 17 210 1 189-6 167-6 151-6 136-2 122 6 108 14 97 25 91 41 84 56 81 80 81 112V413H10V429C28 436 46 448 65 465 83 482 100 502 115 526 122 538 132 561 146 594H161Z"/>
</g>
<g id="font_2_104">
<path transform="matrix(.001,0,0,.001,0,0)" d="M163 694V367C199 407 227 432 248 443 269 454 290 460 312 460 337 460 359 453 377 439 395 425 409 403 418 374 424 352 427 314 427 259V101C427 73 429 53 434 43 437 35 442 28 450 24 458 20 472 18 494 18V0H274V18H284C304 18 319 21 327 27 335 33 341 43 345 55 345 60 346 75 346 101V259C346 308 343 340 338 355 333 370 325 381 314 389 303 397 290 401 274 401 258 401 241 396 224 388 207 380 187 363 163 337V101C163 70 164 51 168 44 171 36 177 30 187 25 196 20 212 18 235 18V0H13V18C33 18 48 21 60 27 66 30 72 36 76 45 80 54 82 73 82 101V506C82 557 80 588 78 600 75 612 71 620 66 624 61 628 54 630 46 630 39 630 28 627 13 623L6 640 140 694H163Z"/>
</g>
<g id="font_2_105">
<path transform="matrix(.001,0,0,.001,0,0)" d="M145 694C159 694 170 689 180 680 189 670 194 659 194 645 194 631 189 620 180 610 170 600 159 595 145 595 131 595 120 600 110 610 100 620 95 631 95 645 95 659 99 670 109 680 119 689 131 694 145 694ZM186 460V101C186 73 188 54 192 45 196 35 202 28 210 24 218 20 232 18 253 18V0H36V18C58 18 72 20 80 24 87 28 93 35 97 45 101 55 104 73 104 101V273C104 321 102 353 100 368 98 378 94 385 89 389 84 393 77 396 69 396 60 396 49 393 36 388L29 406 164 460H186Z"/>
</g>
<g id="font_70_49">
<path transform="matrix(.001,0,0,.001,0,0)" d="M124 83H285V639L110 604V694L284 729H383V83H544V0H124V83Z"/>
</g>
<g id="font_2_40">
<path transform="matrix(.001,0,0,.001,0,0)" d="M311-195V-213C261-188 220-159 188-126 140-78 104-23 79 40 53 104 41 170 41 240 41 340 65 432 115 516 165 599 230 658 311 694V674C270 652 237 621 211 583 185 544 166 495 154 437 141 378 135 316 135 252 135 182 140 119 151 63 159 18 170-17 182-44 194-71 210-97 230-123 250-148 277-172 311-195Z"/>
</g>
<g id="font_2_41">
<path transform="matrix(.001,0,0,.001,0,0)" d="M22 674V694C72 670 113 641 146 608 192 560 228 505 254 441 279 377 292 310 292 241 292 139 267 47 217-35 167-117 102-177 22-213V-195C62-172 95-141 121-103 147-65 166-16 179 42 191 100 198 162 198 226 198 295 192 358 182 416 173 460 163 496 151 523 139 550 122 576 102 602 82 627 55 651 22 674Z"/>
</g>
<clipPath id="clip_71">
<path transform="matrix(.04,0,0,-.04,485.4936,49.15437)" d="M-141-240H1128V795H-141Z"/>
</clipPath>
<g id="font_2_90">
<path transform="matrix(.001,0,0,.001,0,0)" d="M575 662 140 40H412C453 40 485 49 507 67 529 85 549 122 567 178L583 175 552 0H13V18L438 623H226C190 623 165 619 149 611 133 603 121 592 113 578 105 563 97 536 90 497H72L85 662H575Z"/>
</g>
<g id="font_2_45">
<path transform="matrix(.001,0,0,.001,0,0)" d="M41 261H293V188H41V261Z"/>
</g>
<g id="font_2_67">
<path transform="matrix(.001,0,0,.001,0,0)" d="M602 677 617 452H602C582 519 553 567 515 597 477 627 433 642 381 642 337 642 297 630 261 608 225 586 197 550 177 502 157 453 147 392 147 320 147 260 156 208 176 164 195 120 224 86 263 63 301 39 345 28 395 28 437 28 475 37 508 55 541 73 577 110 617 165L632 155C599 96 560 53 516 26 472 0 419-14 358-14 248-14 164 26 104 107 58 167 36 239 36 321 36 387 50 447 80 503 110 558 151 601 203 631 255 661 311 677 373 677 421 677 468 665 515 642 528 634 538 631 544 631 552 631 560 634 567 641 575 649 581 661 585 677H602Z"/>
</g>
<g id="font_2_108">
<path transform="matrix(.001,0,0,.001,0,0)" d="M185 694V101C185 73 187 54 191 45 195 36 201 29 210 25 218 20 234 18 257 18V0H38V18C58 18 72 20 80 24 87 28 93 35 97 45 101 55 104 73 104 101V507C104 557 102 588 100 600 98 612 94 620 89 624 84 628 78 630 70 630 62 630 51 627 38 623L30 640 163 694H185Z"/>
</g>
<g id="font_2_70">
<path transform="matrix(.001,0,0,.001,0,0)" d="M205 626V366H325C353 366 373 372 386 384 398 396 407 420 412 457H430V232H412C411 258 407 277 401 289 395 301 386 310 375 316 363 322 347 325 325 325H205V117C205 83 207 61 211 51 214 43 221 36 231 30 245 22 260 18 276 18H300V0H16V18H40C67 18 87 26 99 42 107 52 111 77 111 117V545C111 578 108 600 104 611 101 619 94 626 84 632 70 640 55 644 40 644H16V662H509L515 517H498C489 547 479 570 468 584 457 598 443 609 427 616 410 622 385 626 351 626H205Z"/>
</g>
<g id="font_2_76">
<path transform="matrix(.001,0,0,.001,0,0)" d="M573 183 589 180 533 0H20V18H45C73 18 93 27 105 45 111 55 115 80 115 118V545C115 586 110 612 102 623 89 637 70 644 45 644H20V662H320V644C284 644 260 641 246 634 232 627 222 618 217 608 211 598 209 573 209 534V118C209 90 211 72 217 62 221 55 227 50 235 47 243 43 268 42 311 42H359C410 42 446 45 466 53 486 60 505 73 522 93 539 112 556 142 573 183Z"/>
</g>
<g id="font_2_119">
<path transform="matrix(.001,0,0,.001,0,0)" d="M6 447H194V429C176 427 165 424 160 420 154 415 152 408 152 399 152 389 154 376 160 362L256 105 352 314 327 380C319 400 308 413 296 421 288 425 275 428 256 429V447H469V429C445 428 429 424 419 417 412 411 409 403 409 392 409 385 410 378 413 372L515 115 609 362C615 380 619 394 619 404 619 410 615 416 609 421 603 425 590 428 572 429V447H713V429C684 425 663 406 650 372L501-13H481L369 272 239-13H221L77 362C67 386 58 402 49 410 40 418 26 425 6 429V447Z"/>
</g>
<g id="font_2_82">
<path transform="matrix(.001,0,0,.001,0,0)" d="M676 0H499L275 310C258 309 244 309 234 309 230 309 225 309 220 309 215 309 210 309 206 310V117C206 75 210 50 219 40 231 25 250 18 275 18H301V0H17V18H42C70 18 90 27 102 45 108 55 112 79 112 117V545C112 586 107 612 99 623 86 637 67 644 42 644H17V662H258C328 662 380 656 414 646 447 636 475 617 499 590 522 562 534 530 534 492 534 451 520 416 494 386 467 356 426 334 371 322L507 132C538 88 565 59 588 45 610 31 640 22 676 18V0ZM206 340C212 340 217 340 222 340 226 340 230 340 233 340 296 340 344 353 376 381 408 408 424 443 424 485 424 526 411 560 385 586 359 612 324 625 282 625 263 625 238 622 206 616V340Z"/>
</g>
<g id="font_2_83">
<path transform="matrix(.001,0,0,.001,0,0)" d="M458 677V448H440C434 492 424 527 409 553 393 579 372 599 344 615 316 630 287 638 257 638 223 638 195 627 173 607 151 586 140 563 140 537 140 516 147 497 161 481 181 457 229 424 305 384 367 350 409 325 432 307 454 289 472 268 484 244 496 220 502 195 502 169 502 119 482 76 444 40 405 4 355-14 294-14 274-14 256-12 240-10 230-8 209-2 177 7 145 17 124 22 116 22 108 22 101 19 97 15 92 10 89 0 87-14H69V212H87C95 164 107 129 121 105 135 81 157 62 187 46 216 30 248 23 284 23 324 23 356 33 380 55 404 76 416 101 416 131 416 147 411 164 402 181 393 197 379 213 360 227 347 237 312 257 256 289 199 321 159 346 135 365 111 384 93 405 81 428 69 450 63 475 63 503 63 550 81 591 117 625 153 659 200 677 256 677 291 677 328 668 368 651 386 643 399 639 407 639 415 639 421 641 427 646 433 651 437 661 440 677H458Z"/>
</g>
<g id="font_2_79">
<path transform="matrix(.001,0,0,.001,0,0)" d="M366 677C452 677 526 644 589 579 652 513 684 432 684 335 684 234 652 151 588 85 524 19 448-14 358-14 266-14 190 18 128 82 66 146 35 230 35 333 35 438 71 524 143 591 205 648 279 677 366 677ZM356 642C297 642 250 620 214 576 169 521 147 441 147 335 147 227 170 144 216 86 252 42 299 20 357 20 419 20 470 44 511 92 551 140 572 217 572 322 572 435 549 519 505 575 469 619 419 642 356 642Z"/>
</g>
</defs>
<path transform="matrix(1,0,0,-1,0,720)" d="M0 0H720V720H0Z" fill="#ffffff"/>
<path transform="matrix(1,0,0,-1,0,720)" d="M111.17 85.88H709.2V661.5675H111.17Z" fill="#ffffff"/>
<g clip-path="url(#clip_1)">
<path transform="matrix(1,0,0,-1,0,720)" stroke-width=".8" stroke-linecap="butt" stroke-dasharray=".8,1.32" stroke-linejoin="round" fill="none" stroke="#bebebe" d="M138.35318 85.88V661.5675"/>
</g>
<path transform="matrix(1,0,0,-1,0,720)" d="M138.35318 85.88V82.38"/>
<path transform="matrix(1,0,0,-1,0,720)" stroke-width=".8" stroke-linecap="butt" stroke-linejoin="round" fill="none" stroke="#000000" d="M138.35318 85.88V82.38"/>
<use data-text="0" xlink:href="#font_2_48" transform="matrix(30,0,0,-30,130.85318,661.9481)"/>
<g clip-path="url(#clip_3)">
<path transform="matrix(1,0,0,-1,0,720)" stroke-width=".8" stroke-linecap="butt" stroke-dasharray=".8,1.32" stroke-linejoin="round" fill="none" stroke="#bebebe" d="M206.31114 85.88V661.5675"/>
</g>
<path transform="matrix(1,0,0,-1,0,720)" d="M206.31114 85.88V82.38"/>
<path transform="matrix(1,0,0,-1,0,720)" stroke-width=".8" stroke-linecap="butt" stroke-linejoin="round" fill="none" stroke="#000000" d="M206.31114 85.88V82.38"/>
<use data-text="1" xlink:href="#font_2_49" transform="matrix(30,0,0,-30,198.81114,661.9481)"/>
<g clip-path="url(#clip_4)">
<path transform="matrix(1,0,0,-1,0,720)" stroke-width=".8" stroke-linecap="butt" stroke-dasharray=".8,1.32" stroke-linejoin="round" fill="none" stroke="#bebebe" d="M274.2691 85.88V661.5675"/>
</g>
<path transform="matrix(1,0,0,-1,0,720)" d="M274.2691 85.88V82.38"/>
<path transform="matrix(1,0,0,-1,0,720)" stroke-width=".8" stroke-linecap="butt" stroke-linejoin="round" fill="none" stroke="#000000" d="M274.2691 85.88V82.38"/>
<use data-text="2" xlink:href="#font_2_50" transform="matrix(30,0,0,-30,266.7691,661.9481)"/>
<g clip-path="url(#clip_5)">
<path transform="matrix(1,0,0,-1,0,720)" stroke-width=".8" stroke-linecap="butt" stroke-dasharray=".8,1.32" stroke-linejoin="round" fill="none" stroke="#bebebe" d="M342.22706 85.88V661.5675"/>
</g>
<path transform="matrix(1,0,0,-1,0,720)" d="M342.22706 85.88V82.38"/>
<path transform="matrix(1,0,0,-1,0,720)" stroke-width=".8" stroke-linecap="butt" stroke-linejoin="round" fill="none" stroke="#000000" d="M342.22706 85.88V82.38"/>
<use data-text="3" xlink:href="#font_2_51" transform="matrix(30,0,0,-30,334.72706,661.9481)"/>
<g clip-path="url(#clip_6)">
<path transform="matrix(1,0,0,-1,0,720)" stroke-width=".8" stroke-linecap="butt" stroke-dasharray=".8,1.32" stroke-linejoin="round" fill="none" stroke="#bebebe" d="M410.185 85.88V661.5675"/>
</g>
<path transform="matrix(1,0,0,-1,0,720)" d="M410.185 85.88V82.38"/>
<path transform="matrix(1,0,0,-1,0,720)" stroke-width=".8" stroke-linecap="butt" stroke-linejoin="round" fill="none" stroke="#000000" d="M410.185 85.88V82.38"/>
<use data-text="4" xlink:href="#font_2_52" transform="matrix(30,0,0,-30,402.685,661.9481)"/>
<g clip-path="url(#clip_7)">
<path transform="matrix(1,0,0,-1,0,720)" stroke-width=".8" stroke-linecap="butt" stroke-dasharray=".8,1.32" stroke-linejoin="round" fill="none" stroke="#bebebe" d="M478.14295 85.88V661.5675"/>
</g>
<path transform="matrix(1,0,0,-1,0,720)" d="M478.14295 85.88V82.38"/>
<path transform="matrix(1,0,0,-1,0,720)" stroke-width=".8" stroke-linecap="butt" stroke-linejoin="round" fill="none" stroke="#000000" d="M478.14295 85.88V82.38"/>
<use data-text="5" xlink:href="#font_2_53" transform="matrix(30,0,0,-30,470.64295,661.9481)"/>
<g clip-path="url(#clip_8)">
<path transform="matrix(1,0,0,-1,0,720)" stroke-width=".8" stroke-linecap="butt" stroke-dasharray=".8,1.32" stroke-linejoin="round" fill="none" stroke="#bebebe" d="M546.1009 85.88V661.5675"/>
</g>
<path transform="matrix(1,0,0,-1,0,720)" d="M546.1009 85.88V82.38"/>
<path transform="matrix(1,0,0,-1,0,720)" stroke-width=".8" stroke-linecap="butt" stroke-linejoin="round" fill="none" stroke="#000000" d="M546.1009 85.88V82.38"/>
<use data-text="6" xlink:href="#font_2_54" transform="matrix(30,0,0,-30,538.6009,661.9481)"/>
<g clip-path="url(#clip_9)">
<path transform="matrix(1,0,0,-1,0,720)" stroke-width=".8" stroke-linecap="butt" stroke-dasharray=".8,1.32" stroke-linejoin="round" fill="none" stroke="#bebebe" d="M614.05886 85.88V661.5675"/>
</g>
<path transform="matrix(1,0,0,-1,0,720)" d="M614.05886 85.88V82.38"/>
<path transform="matrix(1,0,0,-1,0,720)" stroke-width=".8" stroke-linecap="butt" stroke-linejoin="round" fill="none" stroke="#000000" d="M614.05886 85.88V82.38"/>
<use data-text="7" xlink:href="#font_2_55" transform="matrix(30,0,0,-30,606.55886,661.9481)"/>
<g clip-path="url(#clip_10)">
<path transform="matrix(1,0,0,-1,0,720)" stroke-width=".8" stroke-linecap="butt" stroke-dasharray=".8,1.32" stroke-linejoin="round" fill="none" stroke="#bebebe" d="M682.01687 85.88V661.5675"/>
</g>
<path transform="matrix(1,0,0,-1,0,720)" d="M682.01687 85.88V82.38"/>
<path transform="matrix(1,0,0,-1,0,720)" stroke-width=".8" stroke-linecap="butt" stroke-linejoin="round" fill="none" stroke="#000000" d="M682.01687 85.88V82.38"/>
<use data-text="8" xlink:href="#font_2_56" transform="matrix(30,0,0,-30,674.51687,661.9481)"/>
<use data-text="T" xlink:href="#font_2_84" transform="matrix(40,0,0,-40,294.40376,700.15127)"/>
<use data-text="a" xlink:href="#font_2_97" transform="matrix(40,0,0,-40,316.0625,700.15127)"/>
<use data-text="s" xlink:href="#font_2_115" transform="matrix(40,0,0,-40,333.8225,700.15127)"/>
<use data-text="k" xlink:href="#font_2_107" transform="matrix(40,0,0,-40,349.3825,700.15127)"/>
<use data-text=" " xlink:href="#font_2_32" transform="matrix(40,0,0,-40,369.3825,700.15127)"/>
<use data-text="s" xlink:href="#font_2_115" transform="matrix(40,0,0,-40,379.3825,700.15127)"/>
<use data-text="e" xlink:href="#font_2_101" transform="matrix(40,0,0,-40,394.9425,700.15127)"/>
<use data-text="q" xlink:href="#font_2_113" transform="matrix(40,0,0,-40,412.7025,700.15127)"/>
<use data-text="u" xlink:href="#font_2_117" transform="matrix(40,0,0,-40,432.7025,700.15127)"/>
<use data-text="e" xlink:href="#font_2_101" transform="matrix(40,0,0,-40,452.7025,700.15127)"/>
<use data-text="n" xlink:href="#font_2_110" transform="matrix(40,0,0,-40,470.46253,700.15127)"/>
<use data-text="c" xlink:href="#font_2_99" transform="matrix(40,0,0,-40,490.46253,700.15127)"/>
<use data-text="e" xlink:href="#font_2_101" transform="matrix(40,0,0,-40,508.22254,700.15127)"/>
<g clip-path="url(#clip_11)">
<path transform="matrix(1,0,0,-1,0,720)" stroke-width=".8" stroke-linecap="butt" stroke-dasharray=".8,1.32" stroke-linejoin="round" fill="none" stroke="#bebebe" d="M111.17 147.2503H709.2"/>
</g>
<path transform="matrix(1,0,0,-1,0,720)" d="M111.17 147.2503H107.67"/>
<path transform="matrix(1,0,0,-1,0,720)" stroke-width=".8" stroke-linecap="butt" stroke-linejoin="round" fill="none" stroke="#000000" d="M111.17 147.2503H107.67"/>
<use data-text="0" xlink:href="#font_2_48" transform="matrix(30,0,0,-30,51.67,583.16378)"/>
<use data-text="." xlink:href="#font_2_46" transform="matrix(30,0,0,-30,66.67,583.16378)"/>
<use data-text="2" xlink:href="#font_2_50" transform="matrix(30,0,0,-30,74.17,583.16378)"/>
<use data-text="0" xlink:href="#font_2_48" transform="matrix(30,0,0,-30,89.17,583.16378)"/>
<g clip-path="url(#clip_12)">
<path transform="matrix(1,0,0,-1,0,720)" stroke-width=".8" stroke-linecap="butt" stroke-dasharray=".8,1.32" stroke-linejoin="round" fill="none" stroke="#bebebe" d="M111.17 218.27364H709.2"/>
</g>
<path transform="matrix(1,0,0,-1,0,720)" d="M111.17 218.27364H107.67"/>
<path transform="matrix(1,0,0,-1,0,720)" stroke-width=".8" stroke-linecap="butt" stroke-linejoin="round" fill="none" stroke="#000000" d="M111.17 218.27364H107.67"/>
<use data-text="0" xlink:href="#font_2_48" transform="matrix(30,0,0,-30,51.67,512.14047)"/>
<use data-text="." xlink:href="#font_2_46" transform="matrix(30,0,0,-30,66.67,512.14047)"/>
<use data-text="2" xlink:href="#font_2_50" transform="matrix(30,0,0,-30,74.17,512.14047)"/>
<use data-text="5" xlink:href="#font_2_53" transform="matrix(30,0,0,-30,89.17,512.14047)"/>
<g clip-path="url(#clip_13)">
<path transform="matrix(1,0,0,-1,0,720)" stroke-width=".8" stroke-linecap="butt" stroke-dasharray=".8,1.32" stroke-linejoin="round" fill="none" stroke="#bebebe" d="M111.17 289.29698H709.2"/>
</g>
<path transform="matrix(1,0,0,-1,0,720)" d="M111.17 289.29698H107.67"/>
<path transform="matrix(1,0,0,-1,0,720)" stroke-width=".8" stroke-linecap="butt" stroke-linejoin="round" fill="none" stroke="#000000" d="M111.17 289.29698H107.67"/>
<use data-text="0" xlink:href="#font_2_48" transform="matrix(30,0,0,-30,51.67,441.1171)"/>
<use data-text="." xlink:href="#font_2_46" transform="matrix(30,0,0,-30,66.67,441.1171)"/>
<use data-text="3" xlink:href="#font_2_51" transform="matrix(30,0,0,-30,74.17,441.1171)"/>
<use data-text="0" xlink:href="#font_2_48" transform="matrix(30,0,0,-30,89.17,441.1171)"/>
<g clip-path="url(#clip_14)">
<path transform="matrix(1,0,0,-1,0,720)" stroke-width=".8" stroke-linecap="butt" stroke-dasharray=".8,1.32" stroke-linejoin="round" fill="none" stroke="#bebebe" d="M111.17 360.3203H709.2"/>
</g>
<path transform="matrix(1,0,0,-1,0,720)" d="M111.17 360.3203H107.67"/>
<path transform="matrix(1,0,0,-1,0,720)" stroke-width=".8" stroke-linecap="butt" stroke-linejoin="round" fill="none" stroke="#000000" d="M111.17 360.3203H107.67"/>
<use data-text="0" xlink:href="#font_2_48" transform="matrix(30,0,0,-30,51.67,370.09376)"/>
<use data-text="." xlink:href="#font_2_46" transform="matrix(30,0,0,-30,66.67,370.09376)"/>
<use data-text="3" xlink:href="#font_2_51" transform="matrix(30,0,0,-30,74.17,370.09376)"/>
<use data-text="5" xlink:href="#font_2_53" transform="matrix(30,0,0,-30,89.17,370.09376)"/>
<g clip-path="url(#clip_15)">
<path transform="matrix(1,0,0,-1,0,720)" stroke-width=".8" stroke-linecap="butt" stroke-dasharray=".8,1.32" stroke-linejoin="round" fill="none" stroke="#bebebe" d="M111.17 431.34364H709.2"/>
</g>
<path transform="matrix(1,0,0,-1,0,720)" d="M111.17 431.34364H107.67"/>
<path transform="matrix(1,0,0,-1,0,720)" stroke-width=".8" stroke-linecap="butt" stroke-linejoin="round" fill="none" stroke="#000000" d="M111.17 431.34364H107.67"/>
<use data-text="0" xlink:href="#font_2_48" transform="matrix(30,0,0,-30,51.67,299.07044)"/>
<use data-text="." xlink:href="#font_2_46" transform="matrix(30,0,0,-30,66.67,299.07044)"/>
<use data-text="4" xlink:href="#font_2_52" transform="matrix(30,0,0,-30,74.17,299.07044)"/>
<use data-text="0" xlink:href="#font_2_48" transform="matrix(30,0,0,-30,89.17,299.07044)"/>
<g clip-path="url(#clip_16)">
<path transform="matrix(1,0,0,-1,0,720)" stroke-width=".8" stroke-linecap="butt" stroke-dasharray=".8,1.32" stroke-linejoin="round" fill="none" stroke="#bebebe" d="M111.17 502.36698H709.2"/>
</g>
<path transform="matrix(1,0,0,-1,0,720)" d="M111.17 502.36698H107.67"/>
<path transform="matrix(1,0,0,-1,0,720)" stroke-width=".8" stroke-linecap="butt" stroke-linejoin="round" fill="none" stroke="#000000" d="M111.17 502.36698H107.67"/>
<use data-text="0" xlink:href="#font_2_48" transform="matrix(30,0,0,-30,51.67,228.04709)"/>
<use data-text="." xlink:href="#font_2_46" transform="matrix(30,0,0,-30,66.67,228.04709)"/>
<use data-text="4" xlink:href="#font_2_52" transform="matrix(30,0,0,-30,74.17,228.04709)"/>
<use data-text="5" xlink:href="#font_2_53" transform="matrix(30,0,0,-30,89.17,228.04709)"/>
<g clip-path="url(#clip_17)">
<path transform="matrix(1,0,0,-1,0,720)" stroke-width=".8" stroke-linecap="butt" stroke-dasharray=".8,1.32" stroke-linejoin="round" fill="none" stroke="#bebebe" d="M111.17 573.3903H709.2"/>
</g>
<path transform="matrix(1,0,0,-1,0,720)" d="M111.17 573.3903H107.67"/>
<path transform="matrix(1,0,0,-1,0,720)" stroke-width=".8" stroke-linecap="butt" stroke-linejoin="round" fill="none" stroke="#000000" d="M111.17 573.3903H107.67"/>
<use data-text="0" xlink:href="#font_2_48" transform="matrix(30,0,0,-30,51.67,157.02375)"/>
<use data-text="." xlink:href="#font_2_46" transform="matrix(30,0,0,-30,66.67,157.02375)"/>
<use data-text="5" xlink:href="#font_2_53" transform="matrix(30,0,0,-30,74.17,157.02375)"/>
<use data-text="0" xlink:href="#font_2_48" transform="matrix(30,0,0,-30,89.17,157.02375)"/>
<g clip-path="url(#clip_18)">
<path transform="matrix(1,0,0,-1,0,720)" stroke-width=".8" stroke-linecap="butt" stroke-dasharray=".8,1.32" stroke-linejoin="round" fill="none" stroke="#bebebe" d="M111.17 644.41366H709.2"/>
</g>
<path transform="matrix(1,0,0,-1,0,720)" d="M111.17 644.41366H107.67"/>
<path transform="matrix(1,0,0,-1,0,720)" stroke-width=".8" stroke-linecap="butt" stroke-linejoin="round" fill="none" stroke="#000000" d="M111.17 644.41366H107.67"/>
<use data-text="0" xlink:href="#font_2_48" transform="matrix(30,0,0,-30,51.67,86.00043)"/>
<use data-text="." xlink:href="#font_2_46" transform="matrix(30,0,0,-30,66.67,86.00043)"/>
<use data-text="5" xlink:href="#font_2_53" transform="matrix(30,0,0,-30,74.17,86.00043)"/>
<use data-text="5" xlink:href="#font_2_53" transform="matrix(30,0,0,-30,89.17,86.00043)"/>
<use data-text="A" xlink:href="#font_2_65" transform="matrix(0,-40,-40,-0,39.029375,422.88563)"/>
<use data-text="c" xlink:href="#font_2_99" transform="matrix(0,-40,-40,-0,39.029375,394.0056)"/>
<use data-text="c" xlink:href="#font_2_99" transform="matrix(0,-40,-40,-0,39.029375,376.2456)"/>
<use data-text="u" xlink:href="#font_2_117" transform="matrix(0,-40,-40,-0,39.029375,358.4856)"/>
<use data-text="r" xlink:href="#font_2_114" transform="matrix(0,-40,-40,-0,39.029375,338.4856)"/>
<use data-text="a" xlink:href="#font_2_97" transform="matrix(0,-40,-40,-0,39.029375,325.16563)"/>
<use data-text="c" xlink:href="#font_2_99" transform="matrix(0,-40,-40,-0,39.029375,307.4056)"/>
<use data-text="y" xlink:href="#font_2_121" transform="matrix(0,-40,-40,-0,39.029375,289.6456)"/>
<g clip-path="url(#clip_19)">
<path transform="matrix(1,0,0,-1,0,720)" stroke-width="3" stroke-linecap="square" stroke-linejoin="round" fill="none" stroke="#92cd00" d="M138.35318 202.79055 206.31114 631.9904 274.2691 496.89054 342.22706 183.6463 410.185 251.83551 478.14295 171.287 546.1009 185.35103 614.05886 169.58228 682.01687 201.11978"/>
<g clip-path="url(#clip_20)">
<path transform="matrix(1,0,0,-1,138.35318,517.2095)" d="M0-5C1.326016-5 2.597899-4.473168 3.535534-3.535534 4.473168-2.597899 5-1.326016 5 0 5 1.326016 4.473168 2.597899 3.535534 3.535534 2.597899 4.473168 1.326016 5 0 5-1.326016 5-2.597899 4.473168-3.535534 3.535534-4.473168 2.597899-5 1.326016-5 0-5-1.326016-4.473168-2.597899-3.535534-3.535534-2.597899-4.473168-1.326016-5 0-5Z" fill="#92cd00"/>
<path transform="matrix(1,0,0,-1,138.35318,517.2095)" stroke-width="1" stroke-linecap="butt" stroke-linejoin="round" fill="none" stroke="#92cd00" d="M0-5C1.326016-5 2.597899-4.473168 3.535534-3.535534 4.473168-2.597899 5-1.326016 5 0 5 1.326016 4.473168 2.597899 3.535534 3.535534 2.597899 4.473168 1.326016 5 0 5-1.326016 5-2.597899 4.473168-3.535534 3.535534-4.473168 2.597899-5 1.326016-5 0-5-1.326016-4.473168-2.597899-3.535534-3.535534-2.597899-4.473168-1.326016-5 0-5Z"/>
</g>
<g clip-path="url(#clip_21)">
<path transform="matrix(1,0,0,-1,206.31113,88.00958)" d="M0-5C1.326016-5 2.597899-4.473168 3.535534-3.535534 4.473168-2.597899 5-1.326016 5 0 5 1.326016 4.473168 2.597899 3.535534 3.535534 2.597899 4.473168 1.326016 5 0 5-1.326016 5-2.597899 4.473168-3.535534 3.535534-4.473168 2.597899-5 1.326016-5 0-5-1.326016-4.473168-2.597899-3.535534-3.535534-2.597899-4.473168-1.326016-5 0-5Z" fill="#92cd00"/>
<path transform="matrix(1,0,0,-1,206.31113,88.00958)" stroke-width="1" stroke-linecap="butt" stroke-linejoin="round" fill="none" stroke="#92cd00" d="M0-5C1.326016-5 2.597899-4.473168 3.535534-3.535534 4.473168-2.597899 5-1.326016 5 0 5 1.326016 4.473168 2.597899 3.535534 3.535534 2.597899 4.473168 1.326016 5 0 5-1.326016 5-2.597899 4.473168-3.535534 3.535534-4.473168 2.597899-5 1.326016-5 0-5-1.326016-4.473168-2.597899-3.535534-3.535534-2.597899-4.473168-1.326016-5 0-5Z"/>
</g>
<g clip-path="url(#clip_22)">
<path transform="matrix(1,0,0,-1,274.26908,223.10948)" d="M0-5C1.326016-5 2.597899-4.473168 3.535534-3.535534 4.473168-2.597899 5-1.326016 5 0 5 1.326016 4.473168 2.597899 3.535534 3.535534 2.597899 4.473168 1.326016 5 0 5-1.326016 5-2.597899 4.473168-3.535534 3.535534-4.473168 2.597899-5 1.326016-5 0-5-1.326016-4.473168-2.597899-3.535534-3.535534-2.597899-4.473168-1.326016-5 0-5Z" fill="#92cd00"/>
<path transform="matrix(1,0,0,-1,274.26908,223.10948)" stroke-width="1" stroke-linecap="butt" stroke-linejoin="round" fill="none" stroke="#92cd00" d="M0-5C1.326016-5 2.597899-4.473168 3.535534-3.535534 4.473168-2.597899 5-1.326016 5 0 5 1.326016 4.473168 2.597899 3.535534 3.535534 2.597899 4.473168 1.326016 5 0 5-1.326016 5-2.597899 4.473168-3.535534 3.535534-4.473168 2.597899-5 1.326016-5 0-5-1.326016-4.473168-2.597899-3.535534-3.535534-2.597899-4.473168-1.326016-5 0-5Z"/>
</g>
<g clip-path="url(#clip_23)">
<path transform="matrix(1,0,0,-1,342.22703,536.3537)" d="M0-5C1.326016-5 2.597899-4.473168 3.535534-3.535534 4.473168-2.597899 5-1.326016 5 0 5 1.326016 4.473168 2.597899 3.535534 3.535534 2.597899 4.473168 1.326016 5 0 5-1.326016 5-2.597899 4.473168-3.535534 3.535534-4.473168 2.597899-5 1.326016-5 0-5-1.326016-4.473168-2.597899-3.535534-3.535534-2.597899-4.473168-1.326016-5 0-5Z" fill="#92cd00"/>
<path transform="matrix(1,0,0,-1,342.22703,536.3537)" stroke-width="1" stroke-linecap="butt" stroke-linejoin="round" fill="none" stroke="#92cd00" d="M0-5C1.326016-5 2.597899-4.473168 3.535534-3.535534 4.473168-2.597899 5-1.326016 5 0 5 1.326016 4.473168 2.597899 3.535534 3.535534 2.597899 4.473168 1.326016 5 0 5-1.326016 5-2.597899 4.473168-3.535534 3.535534-4.473168 2.597899-5 1.326016-5 0-5-1.326016-4.473168-2.597899-3.535534-3.535534-2.597899-4.473168-1.326016-5 0-5Z"/>
</g>
<g clip-path="url(#clip_24)">
<path transform="matrix(1,0,0,-1,410.18498,468.1645)" d="M0-5C1.326016-5 2.597899-4.473168 3.535534-3.535534 4.473168-2.597899 5-1.326016 5 0 5 1.326016 4.473168 2.597899 3.535534 3.535534 2.597899 4.473168 1.326016 5 0 5-1.326016 5-2.597899 4.473168-3.535534 3.535534-4.473168 2.597899-5 1.326016-5 0-5-1.326016-4.473168-2.597899-3.535534-3.535534-2.597899-4.473168-1.326016-5 0-5Z" fill="#92cd00"/>
<path transform="matrix(1,0,0,-1,410.18498,468.1645)" stroke-width="1" stroke-linecap="butt" stroke-linejoin="round" fill="none" stroke="#92cd00" d="M0-5C1.326016-5 2.597899-4.473168 3.535534-3.535534 4.473168-2.597899 5-1.326016 5 0 5 1.326016 4.473168 2.597899 3.535534 3.535534 2.597899 4.473168 1.326016 5 0 5-1.326016 5-2.597899 4.473168-3.535534 3.535534-4.473168 2.597899-5 1.326016-5 0-5-1.326016-4.473168-2.597899-3.535534-3.535534-2.597899-4.473168-1.326016-5 0-5Z"/>
</g>
<g clip-path="url(#clip_25)">
<path transform="matrix(1,0,0,-1,478.1429,548.713)" d="M0-5C1.326016-5 2.597899-4.473168 3.535534-3.535534 4.473168-2.597899 5-1.326016 5 0 5 1.326016 4.473168 2.597899 3.535534 3.535534 2.597899 4.473168 1.326016 5 0 5-1.326016 5-2.597899 4.473168-3.535534 3.535534-4.473168 2.597899-5 1.326016-5 0-5-1.326016-4.473168-2.597899-3.535534-3.535534-2.597899-4.473168-1.326016-5 0-5Z" fill="#92cd00"/>
<path transform="matrix(1,0,0,-1,478.1429,548.713)" stroke-width="1" stroke-linecap="butt" stroke-linejoin="round" fill="none" stroke="#92cd00" d="M0-5C1.326016-5 2.597899-4.473168 3.535534-3.535534 4.473168-2.597899 5-1.326016 5 0 5 1.326016 4.473168 2.597899 3.535534 3.535534 2.597899 4.473168 1.326016 5 0 5-1.326016 5-2.597899 4.473168-3.535534 3.535534-4.473168 2.597899-5 1.326016-5 0-5-1.326016-4.473168-2.597899-3.535534-3.535534-2.597899-4.473168-1.326016-5 0-5Z"/>
</g>
<g clip-path="url(#clip_26)">
<path transform="matrix(1,0,0,-1,546.1009,534.649)" d="M0-5C1.326016-5 2.597899-4.473168 3.535534-3.535534 4.473168-2.597899 5-1.326016 5 0 5 1.326016 4.473168 2.597899 3.535534 3.535534 2.597899 4.473168 1.326016 5 0 5-1.326016 5-2.597899 4.473168-3.535534 3.535534-4.473168 2.597899-5 1.326016-5 0-5-1.326016-4.473168-2.597899-3.535534-3.535534-2.597899-4.473168-1.326016-5 0-5Z" fill="#92cd00"/>
<path transform="matrix(1,0,0,-1,546.1009,534.649)" stroke-width="1" stroke-linecap="butt" stroke-linejoin="round" fill="none" stroke="#92cd00" d="M0-5C1.326016-5 2.597899-4.473168 3.535534-3.535534 4.473168-2.597899 5-1.326016 5 0 5 1.326016 4.473168 2.597899 3.535534 3.535534 2.597899 4.473168 1.326016 5 0 5-1.326016 5-2.597899 4.473168-3.535534 3.535534-4.473168 2.597899-5 1.326016-5 0-5-1.326016-4.473168-2.597899-3.535534-3.535534-2.597899-4.473168-1.326016-5 0-5Z"/>
</g>
<g clip-path="url(#clip_27)">
<path transform="matrix(1,0,0,-1,614.05886,550.4177)" d="M0-5C1.326016-5 2.597899-4.473168 3.535534-3.535534 4.473168-2.597899 5-1.326016 5 0 5 1.326016 4.473168 2.597899 3.535534 3.535534 2.597899 4.473168 1.326016 5 0 5-1.326016 5-2.597899 4.473168-3.535534 3.535534-4.473168 2.597899-5 1.326016-5 0-5-1.326016-4.473168-2.597899-3.535534-3.535534-2.597899-4.473168-1.326016-5 0-5Z" fill="#92cd00"/>
<path transform="matrix(1,0,0,-1,614.05886,550.4177)" stroke-width="1" stroke-linecap="butt" stroke-linejoin="round" fill="none" stroke="#92cd00" d="M0-5C1.326016-5 2.597899-4.473168 3.535534-3.535534 4.473168-2.597899 5-1.326016 5 0 5 1.326016 4.473168 2.597899 3.535534 3.535534 2.597899 4.473168 1.326016 5 0 5-1.326016 5-2.597899 4.473168-3.535534 3.535534-4.473168 2.597899-5 1.326016-5 0-5-1.326016-4.473168-2.597899-3.535534-3.535534-2.597899-4.473168-1.326016-5 0-5Z"/>
</g>
<g clip-path="url(#clip_28)">
<path transform="matrix(1,0,0,-1,682.0168,518.8802)" d="M0-5C1.326016-5 2.597899-4.473168 3.535534-3.535534 4.473168-2.597899 5-1.326016 5 0 5 1.326016 4.473168 2.597899 3.535534 3.535534 2.597899 4.473168 1.326016 5 0 5-1.326016 5-2.597899 4.473168-3.535534 3.535534-4.473168 2.597899-5 1.326016-5 0-5-1.326016-4.473168-2.597899-3.535534-3.535534-2.597899-4.473168-1.326016-5 0-5Z" fill="#92cd00"/>
<path transform="matrix(1,0,0,-1,682.0168,518.8802)" stroke-width="1" stroke-linecap="butt" stroke-linejoin="round" fill="none" stroke="#92cd00" d="M0-5C1.326016-5 2.597899-4.473168 3.535534-3.535534 4.473168-2.597899 5-1.326016 5 0 5 1.326016 4.473168 2.597899 3.535534 3.535534 2.597899 4.473168 1.326016 5 0 5-1.326016 5-2.597899 4.473168-3.535534 3.535534-4.473168 2.597899-5 1.326016-5 0-5-1.326016-4.473168-2.597899-3.535534-3.535534-2.597899-4.473168-1.326016-5 0-5Z"/>
</g>
</g>
<g clip-path="url(#clip_29)">
<path transform="matrix(1,0,0,-1,0,720)" stroke-width="3" stroke-linecap="square" stroke-linejoin="round" fill="none" stroke="#a3d1f2" d="M138.35318 202.79055 206.31114 635.3999 274.2691 452.9937 342.22706 334.51496 410.185 322.15565 478.14295 252.2617 546.1009 230.95256 614.05886 164.0419 682.01687 112.047618"/>
<g clip-path="url(#clip_30)">
<path transform="matrix(1,0,0,-1,138.35318,517.2095)" d="M-5-5H5V5H-5Z" fill="#a3d1f2"/>
<path transform="matrix(1,0,0,-1,138.35318,517.2095)" stroke-width="1" stroke-linecap="butt" stroke-miterlimit="10" stroke-linejoin="miter" fill="none" stroke="#a3d1f2" d="M-5-5H5V5H-5Z"/>
</g>
<g clip-path="url(#clip_31)">
<path transform="matrix(1,0,0,-1,206.31113,84.60013)" d="M-5-5H5V5H-5Z" fill="#a3d1f2"/>
<path transform="matrix(1,0,0,-1,206.31113,84.60013)" stroke-width="1" stroke-linecap="butt" stroke-miterlimit="10" stroke-linejoin="miter" fill="none" stroke="#a3d1f2" d="M-5-5H5V5H-5Z"/>
</g>
<g clip-path="url(#clip_32)">
<path transform="matrix(1,0,0,-1,274.26908,267.0063)" d="M-5-5H5V5H-5Z" fill="#a3d1f2"/>
<path transform="matrix(1,0,0,-1,274.26908,267.0063)" stroke-width="1" stroke-linecap="butt" stroke-miterlimit="10" stroke-linejoin="miter" fill="none" stroke="#a3d1f2" d="M-5-5H5V5H-5Z"/>
</g>
<g clip-path="url(#clip_33)">
<path transform="matrix(1,0,0,-1,342.22703,385.48506)" d="M-5-5H5V5H-5Z" fill="#a3d1f2"/>
<path transform="matrix(1,0,0,-1,342.22703,385.48506)" stroke-width="1" stroke-linecap="butt" stroke-miterlimit="10" stroke-linejoin="miter" fill="none" stroke="#a3d1f2" d="M-5-5H5V5H-5Z"/>
</g>
<g clip-path="url(#clip_34)">
<path transform="matrix(1,0,0,-1,410.18498,397.84434)" d="M-5-5H5V5H-5Z" fill="#a3d1f2"/>
<path transform="matrix(1,0,0,-1,410.18498,397.84434)" stroke-width="1" stroke-linecap="butt" stroke-miterlimit="10" stroke-linejoin="miter" fill="none" stroke="#a3d1f2" d="M-5-5H5V5H-5Z"/>
</g>
<g clip-path="url(#clip_35)">
<path transform="matrix(1,0,0,-1,478.1429,467.73829)" d="M-5-5H5V5H-5Z" fill="#a3d1f2"/>
<path transform="matrix(1,0,0,-1,478.1429,467.73829)" stroke-width="1" stroke-linecap="butt" stroke-miterlimit="10" stroke-linejoin="miter" fill="none" stroke="#a3d1f2" d="M-5-5H5V5H-5Z"/>
</g>
<g clip-path="url(#clip_36)">
<path transform="matrix(1,0,0,-1,546.1009,489.04743)" d="M-5-5H5V5H-5Z" fill="#a3d1f2"/>
<path transform="matrix(1,0,0,-1,546.1009,489.04743)" stroke-width="1" stroke-linecap="butt" stroke-miterlimit="10" stroke-linejoin="miter" fill="none" stroke="#a3d1f2" d="M-5-5H5V5H-5Z"/>
</g>
<g clip-path="url(#clip_37)">
<path transform="matrix(1,0,0,-1,614.05886,555.9581)" d="M-5-5H5V5H-5Z" fill="#a3d1f2"/>
<path transform="matrix(1,0,0,-1,614.05886,555.9581)" stroke-width="1" stroke-linecap="butt" stroke-miterlimit="10" stroke-linejoin="miter" fill="none" stroke="#a3d1f2" d="M-5-5H5V5H-5Z"/>
</g>
<g clip-path="url(#clip_38)">
<path transform="matrix(1,0,0,-1,682.0168,607.9524)" d="M-5-5H5V5H-5Z" fill="#a3d1f2"/>
<path transform="matrix(1,0,0,-1,682.0168,607.9524)" stroke-width="1" stroke-linecap="butt" stroke-miterlimit="10" stroke-linejoin="miter" fill="none" stroke="#a3d1f2" d="M-5-5H5V5H-5Z"/>
</g>
</g>
<g clip-path="url(#clip_39)">
<path transform="matrix(1,0,0,-1,0,720)" stroke-width="3" stroke-linecap="square" stroke-linejoin="round" fill="none" stroke="#f4b6c2" d="M138.35318 202.79055 206.31114 631.13809 274.2691 591.92929 342.22706 437.65116 410.185 377.5594 478.14295 363.92155 546.1009 372.4452 614.05886 267.60429 682.01687 279.96357"/>
<g clip-path="url(#clip_40)">
<path transform="matrix(1,0,0,-1,138.35318,517.2095)" d="M0-7.071068 7.071068 0 0 7.071068-7.071068 0Z" fill="#f4b6c2"/>
<path transform="matrix(1,0,0,-1,138.35318,517.2095)" stroke-width="1" stroke-linecap="butt" stroke-miterlimit="10" stroke-linejoin="miter" fill="none" stroke="#f4b6c2" d="M0-7.071068 7.071068 0 0 7.071068-7.071068 0Z"/>
</g>
<g clip-path="url(#clip_41)">
<path transform="matrix(1,0,0,-1,206.31113,88.86197)" d="M0-7.071068 7.071068 0 0 7.071068-7.071068 0Z" fill="#f4b6c2"/>
<path transform="matrix(1,0,0,-1,206.31113,88.86197)" stroke-width="1" stroke-linecap="butt" stroke-miterlimit="10" stroke-linejoin="miter" fill="none" stroke="#f4b6c2" d="M0-7.071068 7.071068 0 0 7.071068-7.071068 0Z"/>
</g>
<g clip-path="url(#clip_42)">
<path transform="matrix(1,0,0,-1,274.26908,128.07077)" d="M0-7.071068 7.071068 0 0 7.071068-7.071068 0Z" fill="#f4b6c2"/>
<path transform="matrix(1,0,0,-1,274.26908,128.07077)" stroke-width="1" stroke-linecap="butt" stroke-miterlimit="10" stroke-linejoin="miter" fill="none" stroke="#f4b6c2" d="M0-7.071068 7.071068 0 0 7.071068-7.071068 0Z"/>
</g>
<g clip-path="url(#clip_43)">
<path transform="matrix(1,0,0,-1,342.22703,282.34889)" d="M0-7.071068 7.071068 0 0 7.071068-7.071068 0Z" fill="#f4b6c2"/>
<path transform="matrix(1,0,0,-1,342.22703,282.34889)" stroke-width="1" stroke-linecap="butt" stroke-miterlimit="10" stroke-linejoin="miter" fill="none" stroke="#f4b6c2" d="M0-7.071068 7.071068 0 0 7.071068-7.071068 0Z"/>
</g>
<g clip-path="url(#clip_44)">
<path transform="matrix(1,0,0,-1,410.18498,342.4406)" d="M0-7.071068 7.071068 0 0 7.071068-7.071068 0Z" fill="#f4b6c2"/>
<path transform="matrix(1,0,0,-1,410.18498,342.4406)" stroke-width="1" stroke-linecap="butt" stroke-miterlimit="10" stroke-linejoin="miter" fill="none" stroke="#f4b6c2" d="M0-7.071068 7.071068 0 0 7.071068-7.071068 0Z"/>
</g>
<g clip-path="url(#clip_45)">
<path transform="matrix(1,0,0,-1,478.1429,356.07847)" d="M0-7.071068 7.071068 0 0 7.071068-7.071068 0Z" fill="#f4b6c2"/>
<path transform="matrix(1,0,0,-1,478.1429,356.07847)" stroke-width="1" stroke-linecap="butt" stroke-miterlimit="10" stroke-linejoin="miter" fill="none" stroke="#f4b6c2" d="M0-7.071068 7.071068 0 0 7.071068-7.071068 0Z"/>
</g>
<g clip-path="url(#clip_46)">
<path transform="matrix(1,0,0,-1,546.1009,347.5548)" d="M0-7.071068 7.071068 0 0 7.071068-7.071068 0Z" fill="#f4b6c2"/>
<path transform="matrix(1,0,0,-1,546.1009,347.5548)" stroke-width="1" stroke-linecap="butt" stroke-miterlimit="10" stroke-linejoin="miter" fill="none" stroke="#f4b6c2" d="M0-7.071068 7.071068 0 0 7.071068-7.071068 0Z"/>
</g>
<g clip-path="url(#clip_47)">
<path transform="matrix(1,0,0,-1,614.05886,452.39576)" d="M0-7.071068 7.071068 0 0 7.071068-7.071068 0Z" fill="#f4b6c2"/>
<path transform="matrix(1,0,0,-1,614.05886,452.39576)" stroke-width="1" stroke-linecap="butt" stroke-miterlimit="10" stroke-linejoin="miter" fill="none" stroke="#f4b6c2" d="M0-7.071068 7.071068 0 0 7.071068-7.071068 0Z"/>
</g>
<g clip-path="url(#clip_48)">
<path transform="matrix(1,0,0,-1,682.0168,440.03648)" d="M0-7.071068 7.071068 0 0 7.071068-7.071068 0Z" fill="#f4b6c2"/>
<path transform="matrix(1,0,0,-1,682.0168,440.03648)" stroke-width="1" stroke-linecap="butt" stroke-miterlimit="10" stroke-linejoin="miter" fill="none" stroke="#f4b6c2" d="M0-7.071068 7.071068 0 0 7.071068-7.071068 0Z"/>
</g>
</g>
<g clip-path="url(#clip_49)">
<path transform="matrix(1,0,0,-1,0,720)" stroke-width="3" stroke-linecap="square" stroke-linejoin="round" fill="none" stroke="#fed1bd" d="M138.35318 202.79055 206.31114 619.20498 274.2691 573.17727 342.22706 488.79307 410.185 424.86567 478.14295 387.78779 546.1009 363.49537 614.05886 330.6793 682.01687 349.8575"/>
<g clip-path="url(#clip_50)">
<path transform="matrix(1,0,0,-1,138.35318,517.2095)" d="M0 5-5-5H5Z" fill="#fed1bd"/>
<path transform="matrix(1,0,0,-1,138.35318,517.2095)" stroke-width="1" stroke-linecap="butt" stroke-miterlimit="10" stroke-linejoin="miter" fill="none" stroke="#fed1bd" d="M0 5-5-5H5Z"/>
</g>
<g clip-path="url(#clip_51)">
<path transform="matrix(1,0,0,-1,206.31113,100.795078)" d="M0 5-5-5H5Z" fill="#fed1bd"/>
<path transform="matrix(1,0,0,-1,206.31113,100.795078)" stroke-width="1" stroke-linecap="butt" stroke-miterlimit="10" stroke-linejoin="miter" fill="none" stroke="#fed1bd" d="M0 5-5-5H5Z"/>
</g>
<g clip-path="url(#clip_52)">
<path transform="matrix(1,0,0,-1,274.26908,146.8228)" d="M0 5-5-5H5Z" fill="#fed1bd"/>
<path transform="matrix(1,0,0,-1,274.26908,146.8228)" stroke-width="1" stroke-linecap="butt" stroke-miterlimit="10" stroke-linejoin="miter" fill="none" stroke="#fed1bd" d="M0 5-5-5H5Z"/>
</g>
<g clip-path="url(#clip_53)">
<path transform="matrix(1,0,0,-1,342.22703,231.20697)" d="M0 5-5-5H5Z" fill="#fed1bd"/>
<path transform="matrix(1,0,0,-1,342.22703,231.20697)" stroke-width="1" stroke-linecap="butt" stroke-miterlimit="10" stroke-linejoin="miter" fill="none" stroke="#fed1bd" d="M0 5-5-5H5Z"/>
</g>
<g clip-path="url(#clip_54)">
<path transform="matrix(1,0,0,-1,410.18498,295.13438)" d="M0 5-5-5H5Z" fill="#fed1bd"/>
<path transform="matrix(1,0,0,-1,410.18498,295.13438)" stroke-width="1" stroke-linecap="butt" stroke-miterlimit="10" stroke-linejoin="miter" fill="none" stroke="#fed1bd" d="M0 5-5-5H5Z"/>
</g>
<g clip-path="url(#clip_55)">
<path transform="matrix(1,0,0,-1,478.1429,332.21226)" d="M0 5-5-5H5Z" fill="#fed1bd"/>
<path transform="matrix(1,0,0,-1,478.1429,332.21226)" stroke-width="1" stroke-linecap="butt" stroke-miterlimit="10" stroke-linejoin="miter" fill="none" stroke="#fed1bd" d="M0 5-5-5H5Z"/>
</g>
<g clip-path="url(#clip_56)">
<path transform="matrix(1,0,0,-1,546.1009,356.50468)" d="M0 5-5-5H5Z" fill="#fed1bd"/>
<path transform="matrix(1,0,0,-1,546.1009,356.50468)" stroke-width="1" stroke-linecap="butt" stroke-miterlimit="10" stroke-linejoin="miter" fill="none" stroke="#fed1bd" d="M0 5-5-5H5Z"/>
</g>
<g clip-path="url(#clip_57)">
<path transform="matrix(1,0,0,-1,614.05886,389.32075)" d="M0 5-5-5H5Z" fill="#fed1bd"/>
<path transform="matrix(1,0,0,-1,614.05886,389.32075)" stroke-width="1" stroke-linecap="butt" stroke-miterlimit="10" stroke-linejoin="miter" fill="none" stroke="#fed1bd" d="M0 5-5-5H5Z"/>
</g>
<g clip-path="url(#clip_58)">
<path transform="matrix(1,0,0,-1,682.0168,370.14253)" d="M0 5-5-5H5Z" fill="#fed1bd"/>
<path transform="matrix(1,0,0,-1,682.0168,370.14253)" stroke-width="1" stroke-linecap="butt" stroke-miterlimit="10" stroke-linejoin="miter" fill="none" stroke="#fed1bd" d="M0 5-5-5H5Z"/>
</g>
</g>
<g clip-path="url(#clip_59)">
<path transform="matrix(1,0,0,-1,0,720)" stroke-width="3" stroke-linecap="square" stroke-linejoin="round" fill="none" stroke="#957dad" d="M138.35318 202.79055 206.31114 603.4362H274.2691L342.22706 600.4529 410.185 606.4195 478.14295 591.0769 546.1009 587.2413 614.05886 536.0993 682.01687 522.4615"/>
<g clip-path="url(#clip_60)">
<path transform="matrix(1,0,0,-1,138.35318,517.2095)" d="M-1.666667-5H1.666667V-1.666667H5V1.666667H1.666667V5H-1.666667V1.666667H-5V-1.666667H-1.666667Z" fill="#957dad"/>
<path transform="matrix(1,0,0,-1,138.35318,517.2095)" stroke-width="1" stroke-linecap="butt" stroke-miterlimit="10" stroke-linejoin="miter" fill="none" stroke="#957dad" d="M-1.666667-5H1.666667V-1.666667H5V1.666667H1.666667V5H-1.666667V1.666667H-5V-1.666667H-1.666667Z"/>
</g>
<g clip-path="url(#clip_61)">
<path transform="matrix(1,0,0,-1,206.31113,116.56384)" d="M-1.666667-5H1.666667V-1.666667H5V1.666667H1.666667V5H-1.666667V1.666667H-5V-1.666667H-1.666667Z" fill="#957dad"/>
<path transform="matrix(1,0,0,-1,206.31113,116.56384)" stroke-width="1" stroke-linecap="butt" stroke-miterlimit="10" stroke-linejoin="miter" fill="none" stroke="#957dad" d="M-1.666667-5H1.666667V-1.666667H5V1.666667H1.666667V5H-1.666667V1.666667H-5V-1.666667H-1.666667Z"/>
</g>
<g clip-path="url(#clip_62)">
<path transform="matrix(1,0,0,-1,274.26908,116.56384)" d="M-1.666667-5H1.666667V-1.666667H5V1.666667H1.666667V5H-1.666667V1.666667H-5V-1.666667H-1.666667Z" fill="#957dad"/>
<path transform="matrix(1,0,0,-1,274.26908,116.56384)" stroke-width="1" stroke-linecap="butt" stroke-miterlimit="10" stroke-linejoin="miter" fill="none" stroke="#957dad" d="M-1.666667-5H1.666667V-1.666667H5V1.666667H1.666667V5H-1.666667V1.666667H-5V-1.666667H-1.666667Z"/>
</g>
<g clip-path="url(#clip_63)">
<path transform="matrix(1,0,0,-1,342.22703,119.54712)" d="M-1.666667-5H1.666667V-1.666667H5V1.666667H1.666667V5H-1.666667V1.666667H-5V-1.666667H-1.666667Z" fill="#957dad"/>
<path transform="matrix(1,0,0,-1,342.22703,119.54712)" stroke-width="1" stroke-linecap="butt" stroke-miterlimit="10" stroke-linejoin="miter" fill="none" stroke="#957dad" d="M-1.666667-5H1.666667V-1.666667H5V1.666667H1.666667V5H-1.666667V1.666667H-5V-1.666667H-1.666667Z"/>
</g>
<g clip-path="url(#clip_64)">
<path transform="matrix(1,0,0,-1,410.18498,113.58056)" d="M-1.666667-5H1.666667V-1.666667H5V1.666667H1.666667V5H-1.666667V1.666667H-5V-1.666667H-1.666667Z" fill="#957dad"/>
<path transform="matrix(1,0,0,-1,410.18498,113.58056)" stroke-width="1" stroke-linecap="butt" stroke-miterlimit="10" stroke-linejoin="miter" fill="none" stroke="#957dad" d="M-1.666667-5H1.666667V-1.666667H5V1.666667H1.666667V5H-1.666667V1.666667H-5V-1.666667H-1.666667Z"/>
</g>
<g clip-path="url(#clip_65)">
<path transform="matrix(1,0,0,-1,478.1429,128.92313)" d="M-1.666667-5H1.666667V-1.666667H5V1.666667H1.666667V5H-1.666667V1.666667H-5V-1.666667H-1.666667Z" fill="#957dad"/>
<path transform="matrix(1,0,0,-1,478.1429,128.92313)" stroke-width="1" stroke-linecap="butt" stroke-miterlimit="10" stroke-linejoin="miter" fill="none" stroke="#957dad" d="M-1.666667-5H1.666667V-1.666667H5V1.666667H1.666667V5H-1.666667V1.666667H-5V-1.666667H-1.666667Z"/>
</g>
<g clip-path="url(#clip_66)">
<path transform="matrix(1,0,0,-1,546.1009,132.75878)" d="M-1.666667-5H1.666667V-1.666667H5V1.666667H1.666667V5H-1.666667V1.666667H-5V-1.666667H-1.666667Z" fill="#957dad"/>
<path transform="matrix(1,0,0,-1,546.1009,132.75878)" stroke-width="1" stroke-linecap="butt" stroke-miterlimit="10" stroke-linejoin="miter" fill="none" stroke="#957dad" d="M-1.666667-5H1.666667V-1.666667H5V1.666667H1.666667V5H-1.666667V1.666667H-5V-1.666667H-1.666667Z"/>
</g>
<g clip-path="url(#clip_67)">
<path transform="matrix(1,0,0,-1,614.05886,183.9007)" d="M-1.666667-5H1.666667V-1.666667H5V1.666667H1.666667V5H-1.666667V1.666667H-5V-1.666667H-1.666667Z" fill="#957dad"/>
<path transform="matrix(1,0,0,-1,614.05886,183.9007)" stroke-width="1" stroke-linecap="butt" stroke-miterlimit="10" stroke-linejoin="miter" fill="none" stroke="#957dad" d="M-1.666667-5H1.666667V-1.666667H5V1.666667H1.666667V5H-1.666667V1.666667H-5V-1.666667H-1.666667Z"/>
</g>
<g clip-path="url(#clip_68)">
<path transform="matrix(1,0,0,-1,682.0168,197.53855)" d="M-1.666667-5H1.666667V-1.666667H5V1.666667H1.666667V5H-1.666667V1.666667H-5V-1.666667H-1.666667Z" fill="#957dad"/>
<path transform="matrix(1,0,0,-1,682.0168,197.53855)" stroke-width="1" stroke-linecap="butt" stroke-miterlimit="10" stroke-linejoin="miter" fill="none" stroke="#957dad" d="M-1.666667-5H1.666667V-1.666667H5V1.666667H1.666667V5H-1.666667V1.666667H-5V-1.666667H-1.666667Z"/>
</g>
</g>
<path transform="matrix(1,0,0,-1,0,720)" stroke-width=".8" stroke-linecap="square" stroke-miterlimit="10" stroke-linejoin="miter" fill="none" stroke="#000000" d="M111.17 85.88V661.5675"/>
<path transform="matrix(1,0,0,-1,0,720)" stroke-width=".8" stroke-linecap="square" stroke-miterlimit="10" stroke-linejoin="miter" fill="none" stroke="#000000" d="M709.2 85.88V661.5675"/>
<path transform="matrix(1,0,0,-1,0,720)" stroke-width=".8" stroke-linecap="square" stroke-miterlimit="10" stroke-linejoin="miter" fill="none" stroke="#000000" d="M111.17 85.88H709.2"/>
<path transform="matrix(1,0,0,-1,0,720)" stroke-width=".8" stroke-linecap="square" stroke-miterlimit="10" stroke-linejoin="miter" fill="none" stroke="#000000" d="M111.17 661.5675H709.2"/>
<g clip-path="url(#clip_69)">
<path transform="matrix(1,0,0,-1,0,720)" d="M138.35318 216.93268 135.17807 207.1607H124.90321L133.21575 201.12129 130.04065 191.34932 138.35318 197.38874 146.66573 191.34932 143.49062 201.12129 151.80315 207.1607H141.52829Z" fill="#88d8c0"/>
<path transform="matrix(1,0,0,-1,0,720)" stroke-width="1" stroke-linecap="butt" stroke-linejoin="round" fill="none" stroke="#88d8c0" d="M138.35318 216.93268 135.17807 207.1607H124.90321L133.21575 201.12129 130.04065 191.34932 138.35318 197.38874 146.66573 191.34932 143.49062 201.12129 151.80315 207.1607H141.52829Z"/>
</g>
<use data-text="A" xlink:href="#font_2_65" transform="matrix(40,0,0,-40,126.685,49.15437)"/>
<use data-text="c" xlink:href="#font_2_99" transform="matrix(40,0,0,-40,155.57172,49.15437)"/>
<use data-text="c" xlink:href="#font_2_99" transform="matrix(40,0,0,-40,173.32563,49.15437)"/>
<use data-text="." xlink:href="#font_2_46" transform="matrix(40,0,0,-40,191.07953,49.15437)"/>
<use data-text=" " xlink:href="#font_2_32" transform="matrix(40,0,0,-40,201.07953,49.15437)"/>
<use data-text="o" xlink:href="#font_2_111" transform="matrix(40,0,0,-40,211.07953,49.15437)"/>
<use data-text="f" xlink:href="#font_2_102" transform="matrix(40,0,0,-40,231.07953,49.15437)"/>
<use data-text=" " xlink:href="#font_2_32" transform="matrix(40,0,0,-40,244.39984,49.15437)"/>
<use data-text="t" xlink:href="#font_2_116" transform="matrix(40,0,0,-40,254.39984,49.15437)"/>
<use data-text="h" xlink:href="#font_2_104" transform="matrix(40,0,0,-40,265.51313,49.15437)"/>
<use data-text="e" xlink:href="#font_2_101" transform="matrix(40,0,0,-40,285.51313,49.15437)"/>
<use data-text=" " xlink:href="#font_2_32" transform="matrix(40,0,0,-40,303.26704,49.15437)"/>
<use data-text="1" xlink:href="#font_2_49" transform="matrix(40,0,0,-40,313.26704,49.15437)"/>
<use data-text="s" xlink:href="#font_2_115" transform="matrix(40,0,0,-40,333.26704,49.15437)"/>
<use data-text="t" xlink:href="#font_2_116" transform="matrix(40,0,0,-40,348.83345,49.15437)"/>
<use data-text=" " xlink:href="#font_2_32" transform="matrix(40,0,0,-40,359.94673,49.15437)"/>
<use data-text="t" xlink:href="#font_2_116" transform="matrix(40,0,0,-40,369.94673,49.15437)"/>
<use data-text="a" xlink:href="#font_2_97" transform="matrix(40,0,0,-40,381.06,49.15437)"/>
<use data-text="s" xlink:href="#font_2_115" transform="matrix(40,0,0,-40,398.8139,49.15437)"/>
<use data-text="k" xlink:href="#font_2_107" transform="matrix(40,0,0,-40,414.3803,49.15437)"/>
<use data-text=" " xlink:href="#font_2_32" transform="matrix(40,0,0,-40,434.3803,49.15437)"/>
<use data-text="i" xlink:href="#font_2_105" transform="matrix(40,0,0,-40,444.3803,49.15437)"/>
<use data-text="n" xlink:href="#font_2_110" transform="matrix(40,0,0,-40,455.4936,49.15437)"/>
<use data-text=" " xlink:href="#font_2_32" transform="matrix(40,0,0,-40,475.4936,49.15437)"/>
<use data-text="1" xlink:href="#font_70_49" transform="matrix(28,0,0,-28,511.2364,33.84187)"/>
<use data-text=" " xlink:href="#font_2_32" transform="matrix(40,0,0,-40,530.1446,49.15437)"/>
<use data-text="(" xlink:href="#font_2_40" transform="matrix(40,0,0,-40,540.1446,49.15437)"/>
<use data-text="A" xlink:href="#font_2_65" transform="matrix(40,0,0,-40,553.4649,49.15437)"/>
<use data-text="i" xlink:href="#font_2_105" transform="matrix(40,0,0,-40,582.3516,49.15437)"/>
<use data-text="r" xlink:href="#font_2_114" transform="matrix(40,0,0,-40,593.4649,49.15437)"/>
<use data-text="c" xlink:href="#font_2_99" transform="matrix(40,0,0,-40,606.7852,49.15437)"/>
<use data-text="r" xlink:href="#font_2_114" transform="matrix(40,0,0,-40,624.5391,49.15437)"/>
<use data-text="a" xlink:href="#font_2_97" transform="matrix(40,0,0,-40,637.85946,49.15437)"/>
<use data-text="f" xlink:href="#font_2_102" transform="matrix(40,0,0,-40,655.61337,49.15437)"/>
<use data-text="t" xlink:href="#font_2_116" transform="matrix(40,0,0,-40,668.93368,49.15437)"/>
<use data-text=")" xlink:href="#font_2_41" transform="matrix(40,0,0,-40,680.04696,49.15437)"/>
<g clip-path="url(#clip_71)">
<path transform="matrix(.04,0,0,-.04,485.4936,49.15437)" d="M38 193 64 196C75 126 113 79 178 57 207 46 240 41 276 41 332 41 379 54 419 80 459 106 479 144 479 193 479 213 469 230 450 245 431 260 408 273 382 284 355 294 328 306 301 319 274 332 251 351 232 375 213 399 204 429 204 464 204 497 214 527 235 555 256 583 282 605 312 621 342 637 372 649 402 658 431 666 456 671 478 671 534 671 581 662 617 646 653 629 671 603 671 569 671 550 665 532 653 515 641 498 624 490 602 490 587 490 574 495 563 505 551 515 546 526 546 540 546 555 551 568 561 579 571 590 576 597 576 600 576 608 573 614 567 619 561 624 552 628 540 630 528 632 518 633 510 633 502 633 491 634 478 634 464 634 448 631 429 626 409 621 389 614 367 604 345 594 327 579 312 559 297 539 290 517 290 493 290 469 300 449 321 433 342 416 368 402 398 391 428 379 459 367 489 354 519 341 545 323 566 300 587 276 598 248 598 215 598 165 565 117 501 70 436 23 363 0 282 0 197 0 135 17 96 53 57 88 38 135 38 193Z"/>
</g>
<g>
<path transform="matrix(1,0,0,-1,0,720)" d="M129.37 98.88H354.1325C357.59919 98.88 359.3325 100.613338 359.3325 104.08V322.055C359.3325 325.52168 357.59919 327.255 354.1325 327.255H129.37C125.903339 327.255 124.17 325.52168 124.17 322.055V104.08C124.17 100.613338 125.903339 98.88 129.37 98.88Z" fill="#ffffff" fill-opacity=".8"/>
<path transform="matrix(1,0,0,-1,0,720)" stroke-width="1" stroke-linecap="butt" stroke-miterlimit="10" stroke-linejoin="miter" fill="none" stroke="#d5d6d5" stroke-opacity=".8" d="M129.37 98.88H354.1325C357.59919 98.88 359.3325 100.613338 359.3325 104.08V322.055C359.3325 325.52168 357.59919 327.255 354.1325 327.255H129.37C125.903339 327.255 124.17 325.52168 124.17 322.055V104.08C124.17 100.613338 125.903339 98.88 129.37 98.88Z"/>
</g>
<path transform="matrix(1,0,0,-1,0,720)" d="M160.57 319.62214 157.3949 309.85017H147.12003L155.43257 303.81077 152.25746 294.03877 160.57 300.0782 168.88254 294.03877 165.70743 303.81077 174.01998 309.85017H163.7451Z" fill="#88d8c0"/>
<path transform="matrix(1,0,0,-1,0,720)" stroke-width="1" stroke-linecap="butt" stroke-linejoin="round" fill="none" stroke="#88d8c0" d="M160.57 319.62214 157.3949 309.85017H147.12003L155.43257 303.81077 152.25746 294.03877 160.57 300.0782 168.88254 294.03877 165.70743 303.81077 174.01998 309.85017H163.7451Z"/>
<use data-text="Z" xlink:href="#font_2_90" transform="matrix(26,0,0,-26,207.37,421.345)"/>
<use data-text="e" xlink:href="#font_2_101" transform="matrix(26,0,0,-26,223.256,421.345)"/>
<use data-text="r" xlink:href="#font_2_114" transform="matrix(26,0,0,-26,234.79999,421.345)"/>
<use data-text="o" xlink:href="#font_2_111" transform="matrix(26,0,0,-26,243.458,421.345)"/>
<use data-text="-" xlink:href="#font_2_45" transform="matrix(26,0,0,-26,256.458,421.345)"/>
<use data-text="s" xlink:href="#font_2_115" transform="matrix(26,0,0,-26,265.116,421.345)"/>
<use data-text="h" xlink:href="#font_2_104" transform="matrix(26,0,0,-26,275.22999,421.345)"/>
<use data-text="o" xlink:href="#font_2_111" transform="matrix(26,0,0,-26,288.22999,421.345)"/>
<use data-text="t" xlink:href="#font_2_116" transform="matrix(26,0,0,-26,301.22999,421.345)"/>
<path transform="matrix(1,0,0,-1,0,720)" stroke-width="3" stroke-linecap="square" stroke-linejoin="round" fill="none" stroke="#92cd00" d="M134.57 270.9925H160.57 186.57"/>
<path transform="matrix(1,0,0,-1,0,720)" d="M160.57 265.9925C161.89601 265.9925 163.1679 266.51933 164.10553 267.45698 165.04317 268.3946 165.57 269.66648 165.57 270.9925 165.57 272.3185 165.04317 273.5904 164.10553 274.52806 163.1679 275.46568 161.89601 275.9925 160.57 275.9925 159.24399 275.9925 157.9721 275.46568 157.03447 274.52806 156.09683 273.5904 155.57 272.3185 155.57 270.9925 155.57 269.66648 156.09683 268.3946 157.03447 267.45698 157.9721 266.51933 159.24399 265.9925 160.57 265.9925Z" fill="#92cd00"/>
<path transform="matrix(1,0,0,-1,0,720)" stroke-width="1" stroke-linecap="butt" stroke-linejoin="round" fill="none" stroke="#92cd00" d="M160.57 265.9925C161.89601 265.9925 163.1679 266.51933 164.10553 267.45698 165.04317 268.3946 165.57 269.66648 165.57 270.9925 165.57 272.3185 165.04317 273.5904 164.10553 274.52806 163.1679 275.46568 161.89601 275.9925 160.57 275.9925 159.24399 275.9925 157.9721 275.46568 157.03447 274.52806 156.09683 273.5904 155.57 272.3185 155.57 270.9925 155.57 269.66648 156.09683 268.3946 157.03447 267.45698 157.9721 266.51933 159.24399 265.9925 160.57 265.9925Z"/>
<use data-text="C" xlink:href="#font_2_67" transform="matrix(26,0,0,-26,207.37,458.1075)"/>
<use data-text="o" xlink:href="#font_2_111" transform="matrix(26,0,0,-26,224.71199,458.1075)"/>
<use data-text="n" xlink:href="#font_2_110" transform="matrix(26,0,0,-26,237.71199,458.1075)"/>
<use data-text="t" xlink:href="#font_2_116" transform="matrix(26,0,0,-26,250.712,458.1075)"/>
<use data-text="i" xlink:href="#font_2_105" transform="matrix(26,0,0,-26,257.94,458.1075)"/>
<use data-text="n" xlink:href="#font_2_110" transform="matrix(26,0,0,-26,265.168,458.1075)"/>
<use data-text="u" xlink:href="#font_2_117" transform="matrix(26,0,0,-26,278.168,458.1075)"/>
<use data-text="a" xlink:href="#font_2_97" transform="matrix(26,0,0,-26,291.168,458.1075)"/>
<use data-text="l" xlink:href="#font_2_108" transform="matrix(26,0,0,-26,302.712,458.1075)"/>
<use data-text="-" xlink:href="#font_2_45" transform="matrix(26,0,0,-26,309.94,458.1075)"/>
<use data-text="F" xlink:href="#font_2_70" transform="matrix(26,0,0,-26,318.598,458.1075)"/>
<use data-text="T" xlink:href="#font_2_84" transform="matrix(26,0,0,-26,333.05403,458.1075)"/>
<path transform="matrix(1,0,0,-1,0,720)" stroke-width="3" stroke-linecap="square" stroke-linejoin="round" fill="none" stroke="#a3d1f2" d="M134.57 234.23H160.57 186.57"/>
<path transform="matrix(1,0,0,-1,0,720)" d="M155.57 229.23H165.57V239.23H155.57Z" fill="#a3d1f2"/>
<path transform="matrix(1,0,0,-1,0,720)" stroke-width="1" stroke-linecap="butt" stroke-miterlimit="10" stroke-linejoin="miter" fill="none" stroke="#a3d1f2" d="M155.57 229.23H165.57V239.23H155.57Z"/>
<use data-text="L" xlink:href="#font_2_76" transform="matrix(26,0,0,-26,207.37,494.87)"/>
<use data-text="w" xlink:href="#font_2_119" transform="matrix(26,0,0,-26,223.256,494.87)"/>
<use data-text="F" xlink:href="#font_2_70" transform="matrix(26,0,0,-26,242.028,494.87)"/>
<path transform="matrix(1,0,0,-1,0,720)" stroke-width="3" stroke-linecap="square" stroke-linejoin="round" fill="none" stroke="#f4b6c2" d="M134.57 197.4675H160.57 186.57"/>
<path transform="matrix(1,0,0,-1,0,720)" d="M160.57 190.39644 167.64107 197.4675 160.57 204.53858 153.49893 197.4675Z" fill="#f4b6c2"/>
<path transform="matrix(1,0,0,-1,0,720)" stroke-width="1" stroke-linecap="butt" stroke-miterlimit="10" stroke-linejoin="miter" fill="none" stroke="#f4b6c2" d="M160.57 190.39644 167.64107 197.4675 160.57 204.53858 153.49893 197.4675Z"/>
<use data-text="i" xlink:href="#font_2_105" transform="matrix(26,0,0,-26,207.37,531.6325)"/>
<use data-text="C" xlink:href="#font_2_67" transform="matrix(26,0,0,-26,214.59799,531.6325)"/>
<use data-text="a" xlink:href="#font_2_97" transform="matrix(26,0,0,-26,231.94,531.6325)"/>
<use data-text="R" xlink:href="#font_2_82" transform="matrix(26,0,0,-26,243.484,531.6325)"/>
<use data-text="L" xlink:href="#font_2_76" transform="matrix(26,0,0,-26,260.826,531.6325)"/>
<path transform="matrix(1,0,0,-1,0,720)" stroke-width="3" stroke-linecap="square" stroke-linejoin="round" fill="none" stroke="#fed1bd" d="M134.57 160.705H160.57 186.57"/>
<path transform="matrix(1,0,0,-1,0,720)" d="M160.57 165.705 155.57 155.705H165.57Z" fill="#fed1bd"/>
<path transform="matrix(1,0,0,-1,0,720)" stroke-width="1" stroke-linecap="butt" stroke-miterlimit="10" stroke-linejoin="miter" fill="none" stroke="#fed1bd" d="M160.57 165.705 155.57 155.705H165.57Z"/>
<use data-text="Z" xlink:href="#font_2_90" transform="matrix(26,0,0,-26,207.37,568.395)"/>
<use data-text="S" xlink:href="#font_2_83" transform="matrix(26,0,0,-26,223.256,568.395)"/>
<use data-text="C" xlink:href="#font_2_67" transform="matrix(26,0,0,-26,237.71199,568.395)"/>
<use data-text="L" xlink:href="#font_2_76" transform="matrix(26,0,0,-26,255.054,568.395)"/>
<path transform="matrix(1,0,0,-1,0,720)" stroke-width="3" stroke-linecap="square" stroke-linejoin="round" fill="none" stroke="#957dad" d="M134.57 123.9425H160.57 186.57"/>
<path transform="matrix(1,0,0,-1,0,720)" d="M158.90334 118.9425H162.23667V122.27583H165.57V125.60917H162.23667V128.9425H158.90334V125.60917H155.57V122.27583H158.90334Z" fill="#957dad"/>
<path transform="matrix(1,0,0,-1,0,720)" stroke-width="1" stroke-linecap="butt" stroke-miterlimit="10" stroke-linejoin="miter" fill="none" stroke="#957dad" d="M158.90334 118.9425H162.23667V122.27583H165.57V125.60917H162.23667V128.9425H158.90334V125.60917H155.57V122.27583H158.90334Z"/>
<use data-text="O" xlink:href="#font_2_79" transform="matrix(26,0,0,-26,207.37,605.1575)"/>
<use data-text="u" xlink:href="#font_2_117" transform="matrix(26,0,0,-26,226.142,605.1575)"/>
<use data-text="r" xlink:href="#font_2_114" transform="matrix(26,0,0,-26,239.142,605.1575)"/>
<use data-text="s" xlink:href="#font_2_115" transform="matrix(26,0,0,-26,247.79999,605.1575)"/>
</svg>
